<svg width="25" height="22" viewBox="0 0 25 22" fill="none" xmlns="http://www.w3.org/2000/svg">
<mask id="path-1-outside-1_557_11021" maskUnits="userSpaceOnUse" x="-0.800049" y="-0.900024" width="25" height="23" fill="black">
<rect fill="white" x="-0.800049" y="-0.900024" width="25" height="23"/>
<path d="M22.5018 6.63789C23.8458 5.11223 24.298 3.87266 23.8078 3.04275C23.296 2.18124 21.8858 1.95618 19.7232 2.38796C19.3146 1.90877 18.8182 1.53076 18.2479 1.27954C16.5266 0.52143 14.388 1.01274 12.2045 2.66202C10.7195 1.53866 9.28533 0.95734 7.93863 0.933681C6.81068 0.913699 5.81099 1.29253 5.02363 2.0337L4.11695 0.274842C4.08981 0.222261 4.04826 0.178072 3.99694 0.147198C3.94561 0.116323 3.88651 0.0999756 3.82624 0.0999756C3.76596 0.0999756 3.70686 0.116323 3.65554 0.147198C3.60421 0.178072 3.56266 0.222261 3.53552 0.274842L2.47833 2.32574L0.378946 3.35864C0.325121 3.38514 0.279886 3.42572 0.248282 3.47586C0.216678 3.526 0.199946 3.58373 0.199951 3.64261C0.199956 3.7015 0.216697 3.75922 0.24831 3.80936C0.279922 3.85949 0.325163 3.90007 0.378992 3.92656L2.47833 4.95941L3.42707 6.79983C3.51581 8.07028 3.8962 9.33714 4.5434 10.5385C2.41064 12.5549 1.57002 14.2214 2.17525 15.2459C2.42357 15.6663 2.83616 15.951 3.40155 16.0923C3.68102 16.1621 3.99981 16.1969 4.35774 16.1969C4.79697 16.1969 5.29529 16.1441 5.85082 16.0394C5.97689 17.0705 6.13847 17.9951 6.33287 18.7883C6.81798 20.7675 7.45872 21.7823 8.29186 21.8905C8.34072 21.8968 8.38939 21.9 8.43806 21.9C9.02492 21.8999 9.59682 21.4369 10.1814 20.4901C10.7924 19.5005 11.4258 17.9562 12.0644 15.899C12.0837 15.8355 12.1361 15.7976 12.2045 15.7976C12.272 15.7976 12.3238 15.8355 12.3436 15.9002C12.9783 17.945 13.6083 19.4839 14.2162 20.4739C14.8449 21.4977 15.4589 21.9616 16.0932 21.8929C16.8278 21.8131 17.4115 21.0335 17.8775 19.5098C18.2555 18.2736 18.5415 16.5616 18.7083 14.5425C18.8905 14.5635 19.0757 14.5747 19.2636 14.5747C21.8597 14.5747 23.9718 12.5107 23.9718 9.97372C23.9717 8.66186 23.4066 7.4766 22.5018 6.63789ZM23.2444 3.36127C23.5756 3.92216 23.1224 4.96137 21.9999 6.23286C21.6839 6.01144 21.341 5.82918 20.9791 5.69023C20.9011 4.64693 20.6078 3.71512 20.1381 2.95788C21.7739 2.67092 22.9197 2.81483 23.2444 3.36127ZM7.92696 1.5695C9.16949 1.59134 10.578 2.19482 12.0002 3.31473C12.0037 3.31754 12.0077 3.31945 12.0114 3.32208C13.3238 4.27033 14.7164 4.78508 16.27 4.89429L16.3167 4.26002C15.0286 4.16947 13.8588 3.77325 12.753 3.05388C14.6822 1.64424 16.527 1.21905 17.9804 1.85927C19.2616 2.42365 20.1116 3.76281 20.3062 5.48787C19.964 5.41208 19.6143 5.3739 19.2635 5.37403C16.6667 5.37403 14.5539 7.43746 14.5539 9.97368C14.5539 10.577 14.6736 11.1534 14.8906 11.6818C13.8852 12.2515 11.8737 13.2811 9.8233 14.1152C8.53572 14.639 7.39471 15.023 6.41989 15.2633C6.31901 14.2815 6.2458 13.1839 6.20857 11.9736C6.20651 11.9065 6.18275 11.8418 6.1407 11.7887C4.70758 9.97817 4.23158 8.25638 4.10105 7.03656C4.10658 7.02798 4.11226 7.01953 4.117 7.01041L5.17424 4.95946L7.27357 3.92661C7.32742 3.90013 7.37267 3.85956 7.4043 3.80942C7.43592 3.75928 7.45267 3.70155 7.45267 3.64266C7.45268 3.58377 7.43594 3.52604 7.40432 3.47589C7.37271 3.42575 7.32746 3.38517 7.27362 3.35868L5.48843 2.48032C6.14869 1.86658 6.98346 1.5526 7.92696 1.5695ZM2.86708 4.43867L1.249 3.6426L2.86712 2.84648C2.92944 2.81582 2.98003 2.76641 3.01141 2.70552L3.82628 1.12477L4.64116 2.70552C4.67254 2.76641 4.72312 2.81582 4.78544 2.84648L6.40357 3.6426L4.78549 4.43867C4.72316 4.46933 4.67256 4.51875 4.64116 4.57963L3.82628 6.16043L3.01141 4.57963C2.98001 4.51875 2.92941 4.46933 2.86708 4.43867ZM3.56281 15.4761C3.16816 15.3775 2.89868 15.1983 2.73906 14.928C2.32539 14.2278 3.14073 12.7828 4.87525 11.1113C5.08625 11.4507 5.3152 11.7792 5.56118 12.0953C5.59967 13.2763 5.67316 14.3864 5.77914 15.405C4.84982 15.5855 4.10314 15.6112 3.56281 15.4761ZM16.0211 21.2609C15.7183 21.2935 14.6039 20.991 12.9669 15.7169C12.8654 15.3848 12.5589 15.1616 12.2044 15.1616C11.849 15.1616 11.5421 15.3848 11.4409 15.7156C9.79578 21.0158 8.6801 21.2997 8.37758 21.26C7.67222 21.1684 6.90649 19.3257 6.49124 15.9016C7.51841 15.6553 8.71413 15.2553 10.0735 14.7023C12.1221 13.8689 14.1362 12.8408 15.175 12.2555C15.7952 13.312 16.832 14.1063 18.065 14.4235C17.6924 19.0307 16.7764 21.1788 16.0211 21.2609ZM19.2635 13.9387C17.0256 13.9387 15.2049 12.16 15.2049 9.97363C15.2049 7.78804 17.0256 6.00998 19.2635 6.00998C21.5007 6.00998 23.3208 7.78804 23.3208 9.97363C23.3208 12.16 21.5007 13.9387 19.2635 13.9387ZM21.8581 8.92321H20.3387V7.43769C20.3387 7.35335 20.3044 7.27248 20.2434 7.21284C20.1824 7.15321 20.0996 7.11971 20.0133 7.11971H18.5137C18.4274 7.11971 18.3446 7.15321 18.2836 7.21284C18.2225 7.27248 18.1882 7.35335 18.1882 7.43769V8.92321H16.6676C16.5813 8.92321 16.4985 8.95671 16.4374 9.01634C16.3764 9.07597 16.3421 9.15685 16.3421 9.24118V10.7062C16.3421 10.7905 16.3764 10.8714 16.4374 10.931C16.4985 10.9906 16.5813 11.0242 16.6676 11.0242H18.1882V12.5097C18.1882 12.594 18.2225 12.6749 18.2836 12.7345C18.3446 12.7941 18.4274 12.8276 18.5137 12.8276H20.0133C20.0996 12.8276 20.1824 12.7941 20.2434 12.7345C20.3044 12.6749 20.3387 12.594 20.3387 12.5097V11.0242H21.8581C21.9444 11.0242 22.0272 10.9906 22.0882 10.931C22.1493 10.8714 22.1836 10.7905 22.1836 10.7062V9.24118C22.1836 9.15685 22.1493 9.07598 22.0882 9.01635C22.0272 8.95672 21.9444 8.92322 21.8581 8.92321ZM21.5326 10.3882H20.0133C19.9269 10.3882 19.8441 10.4217 19.7831 10.4813C19.7221 10.541 19.6878 10.6218 19.6878 10.7062V12.1917H18.8392V10.7062C18.8392 10.6218 18.8049 10.541 18.7438 10.4813C18.6828 10.4217 18.6 10.3882 18.5137 10.3882H16.993V9.55916H18.5137C18.5564 9.55916 18.5987 9.55093 18.6382 9.53495C18.6777 9.51897 18.7136 9.49555 18.7438 9.46602C18.774 9.4365 18.798 9.40144 18.8144 9.36287C18.8307 9.32429 18.8392 9.28294 18.8392 9.24118V7.75566H19.6878V9.24118C19.6878 9.32551 19.7221 9.40639 19.7831 9.46602C19.8441 9.52566 19.9269 9.55916 20.0133 9.55916H21.5326V10.3882ZM23.3368 16.7932L22.0807 16.1749L21.4477 14.9478C21.4206 14.8952 21.3791 14.851 21.3277 14.8201C21.2764 14.7892 21.2173 14.7729 21.1571 14.7729C21.0968 14.7729 21.0377 14.7892 20.9864 14.8201C20.935 14.851 20.8935 14.8952 20.8664 14.9478L20.2334 16.1749L18.9773 16.7932C18.9235 16.8197 18.8783 16.8603 18.8467 16.9104C18.8151 16.9606 18.7983 17.0183 18.7983 17.0772C18.7983 17.136 18.8151 17.1938 18.8467 17.2439C18.8783 17.294 18.9235 17.3346 18.9773 17.3611L20.2334 17.9795L20.8664 19.2066C20.8935 19.2592 20.935 19.3034 20.9864 19.3342C21.0377 19.3651 21.0968 19.3815 21.1571 19.3815C21.2173 19.3815 21.2764 19.3651 21.3277 19.3342C21.3791 19.3034 21.4206 19.2592 21.4477 19.2066L22.0807 17.9795L23.3368 17.3611C23.3906 17.3346 23.4358 17.294 23.4674 17.2439C23.499 17.1938 23.5158 17.136 23.5158 17.0772C23.5158 17.0183 23.499 16.9606 23.4674 16.9104C23.4358 16.8603 23.3906 16.8197 23.3368 16.7932ZM21.6919 17.4588C21.6296 17.4895 21.5791 17.5388 21.5477 17.5997L21.1571 18.357L20.7664 17.5997C20.7351 17.5388 20.6845 17.4894 20.6222 17.4588L19.8471 17.0772L20.6222 16.6956C20.6845 16.6649 20.7351 16.6155 20.7664 16.5547L21.1571 15.7974L21.5477 16.5547C21.579 16.6155 21.6296 16.6649 21.6919 16.6956L22.467 17.0772L21.6919 17.4588Z"/>
</mask>
<path d="M22.5018 6.63789C23.8458 5.11223 24.298 3.87266 23.8078 3.04275C23.296 2.18124 21.8858 1.95618 19.7232 2.38796C19.3146 1.90877 18.8182 1.53076 18.2479 1.27954C16.5266 0.52143 14.388 1.01274 12.2045 2.66202C10.7195 1.53866 9.28533 0.95734 7.93863 0.933681C6.81068 0.913699 5.81099 1.29253 5.02363 2.0337L4.11695 0.274842C4.08981 0.222261 4.04826 0.178072 3.99694 0.147198C3.94561 0.116323 3.88651 0.0999756 3.82624 0.0999756C3.76596 0.0999756 3.70686 0.116323 3.65554 0.147198C3.60421 0.178072 3.56266 0.222261 3.53552 0.274842L2.47833 2.32574L0.378946 3.35864C0.325121 3.38514 0.279886 3.42572 0.248282 3.47586C0.216678 3.526 0.199946 3.58373 0.199951 3.64261C0.199956 3.7015 0.216697 3.75922 0.24831 3.80936C0.279922 3.85949 0.325163 3.90007 0.378992 3.92656L2.47833 4.95941L3.42707 6.79983C3.51581 8.07028 3.8962 9.33714 4.5434 10.5385C2.41064 12.5549 1.57002 14.2214 2.17525 15.2459C2.42357 15.6663 2.83616 15.951 3.40155 16.0923C3.68102 16.1621 3.99981 16.1969 4.35774 16.1969C4.79697 16.1969 5.29529 16.1441 5.85082 16.0394C5.97689 17.0705 6.13847 17.9951 6.33287 18.7883C6.81798 20.7675 7.45872 21.7823 8.29186 21.8905C8.34072 21.8968 8.38939 21.9 8.43806 21.9C9.02492 21.8999 9.59682 21.4369 10.1814 20.4901C10.7924 19.5005 11.4258 17.9562 12.0644 15.899C12.0837 15.8355 12.1361 15.7976 12.2045 15.7976C12.272 15.7976 12.3238 15.8355 12.3436 15.9002C12.9783 17.945 13.6083 19.4839 14.2162 20.4739C14.8449 21.4977 15.4589 21.9616 16.0932 21.8929C16.8278 21.8131 17.4115 21.0335 17.8775 19.5098C18.2555 18.2736 18.5415 16.5616 18.7083 14.5425C18.8905 14.5635 19.0757 14.5747 19.2636 14.5747C21.8597 14.5747 23.9718 12.5107 23.9718 9.97372C23.9717 8.66186 23.4066 7.4766 22.5018 6.63789ZM23.2444 3.36127C23.5756 3.92216 23.1224 4.96137 21.9999 6.23286C21.6839 6.01144 21.341 5.82918 20.9791 5.69023C20.9011 4.64693 20.6078 3.71512 20.1381 2.95788C21.7739 2.67092 22.9197 2.81483 23.2444 3.36127ZM7.92696 1.5695C9.16949 1.59134 10.578 2.19482 12.0002 3.31473C12.0037 3.31754 12.0077 3.31945 12.0114 3.32208C13.3238 4.27033 14.7164 4.78508 16.27 4.89429L16.3167 4.26002C15.0286 4.16947 13.8588 3.77325 12.753 3.05388C14.6822 1.64424 16.527 1.21905 17.9804 1.85927C19.2616 2.42365 20.1116 3.76281 20.3062 5.48787C19.964 5.41208 19.6143 5.3739 19.2635 5.37403C16.6667 5.37403 14.5539 7.43746 14.5539 9.97368C14.5539 10.577 14.6736 11.1534 14.8906 11.6818C13.8852 12.2515 11.8737 13.2811 9.8233 14.1152C8.53572 14.639 7.39471 15.023 6.41989 15.2633C6.31901 14.2815 6.2458 13.1839 6.20857 11.9736C6.20651 11.9065 6.18275 11.8418 6.1407 11.7887C4.70758 9.97817 4.23158 8.25638 4.10105 7.03656C4.10658 7.02798 4.11226 7.01953 4.117 7.01041L5.17424 4.95946L7.27357 3.92661C7.32742 3.90013 7.37267 3.85956 7.4043 3.80942C7.43592 3.75928 7.45267 3.70155 7.45267 3.64266C7.45268 3.58377 7.43594 3.52604 7.40432 3.47589C7.37271 3.42575 7.32746 3.38517 7.27362 3.35868L5.48843 2.48032C6.14869 1.86658 6.98346 1.5526 7.92696 1.5695ZM2.86708 4.43867L1.249 3.6426L2.86712 2.84648C2.92944 2.81582 2.98003 2.76641 3.01141 2.70552L3.82628 1.12477L4.64116 2.70552C4.67254 2.76641 4.72312 2.81582 4.78544 2.84648L6.40357 3.6426L4.78549 4.43867C4.72316 4.46933 4.67256 4.51875 4.64116 4.57963L3.82628 6.16043L3.01141 4.57963C2.98001 4.51875 2.92941 4.46933 2.86708 4.43867ZM3.56281 15.4761C3.16816 15.3775 2.89868 15.1983 2.73906 14.928C2.32539 14.2278 3.14073 12.7828 4.87525 11.1113C5.08625 11.4507 5.3152 11.7792 5.56118 12.0953C5.59967 13.2763 5.67316 14.3864 5.77914 15.405C4.84982 15.5855 4.10314 15.6112 3.56281 15.4761ZM16.0211 21.2609C15.7183 21.2935 14.6039 20.991 12.9669 15.7169C12.8654 15.3848 12.5589 15.1616 12.2044 15.1616C11.849 15.1616 11.5421 15.3848 11.4409 15.7156C9.79578 21.0158 8.6801 21.2997 8.37758 21.26C7.67222 21.1684 6.90649 19.3257 6.49124 15.9016C7.51841 15.6553 8.71413 15.2553 10.0735 14.7023C12.1221 13.8689 14.1362 12.8408 15.175 12.2555C15.7952 13.312 16.832 14.1063 18.065 14.4235C17.6924 19.0307 16.7764 21.1788 16.0211 21.2609ZM19.2635 13.9387C17.0256 13.9387 15.2049 12.16 15.2049 9.97363C15.2049 7.78804 17.0256 6.00998 19.2635 6.00998C21.5007 6.00998 23.3208 7.78804 23.3208 9.97363C23.3208 12.16 21.5007 13.9387 19.2635 13.9387ZM21.8581 8.92321H20.3387V7.43769C20.3387 7.35335 20.3044 7.27248 20.2434 7.21284C20.1824 7.15321 20.0996 7.11971 20.0133 7.11971H18.5137C18.4274 7.11971 18.3446 7.15321 18.2836 7.21284C18.2225 7.27248 18.1882 7.35335 18.1882 7.43769V8.92321H16.6676C16.5813 8.92321 16.4985 8.95671 16.4374 9.01634C16.3764 9.07597 16.3421 9.15685 16.3421 9.24118V10.7062C16.3421 10.7905 16.3764 10.8714 16.4374 10.931C16.4985 10.9906 16.5813 11.0242 16.6676 11.0242H18.1882V12.5097C18.1882 12.594 18.2225 12.6749 18.2836 12.7345C18.3446 12.7941 18.4274 12.8276 18.5137 12.8276H20.0133C20.0996 12.8276 20.1824 12.7941 20.2434 12.7345C20.3044 12.6749 20.3387 12.594 20.3387 12.5097V11.0242H21.8581C21.9444 11.0242 22.0272 10.9906 22.0882 10.931C22.1493 10.8714 22.1836 10.7905 22.1836 10.7062V9.24118C22.1836 9.15685 22.1493 9.07598 22.0882 9.01635C22.0272 8.95672 21.9444 8.92322 21.8581 8.92321ZM21.5326 10.3882H20.0133C19.9269 10.3882 19.8441 10.4217 19.7831 10.4813C19.7221 10.541 19.6878 10.6218 19.6878 10.7062V12.1917H18.8392V10.7062C18.8392 10.6218 18.8049 10.541 18.7438 10.4813C18.6828 10.4217 18.6 10.3882 18.5137 10.3882H16.993V9.55916H18.5137C18.5564 9.55916 18.5987 9.55093 18.6382 9.53495C18.6777 9.51897 18.7136 9.49555 18.7438 9.46602C18.774 9.4365 18.798 9.40144 18.8144 9.36287C18.8307 9.32429 18.8392 9.28294 18.8392 9.24118V7.75566H19.6878V9.24118C19.6878 9.32551 19.7221 9.40639 19.7831 9.46602C19.8441 9.52566 19.9269 9.55916 20.0133 9.55916H21.5326V10.3882ZM23.3368 16.7932L22.0807 16.1749L21.4477 14.9478C21.4206 14.8952 21.3791 14.851 21.3277 14.8201C21.2764 14.7892 21.2173 14.7729 21.1571 14.7729C21.0968 14.7729 21.0377 14.7892 20.9864 14.8201C20.935 14.851 20.8935 14.8952 20.8664 14.9478L20.2334 16.1749L18.9773 16.7932C18.9235 16.8197 18.8783 16.8603 18.8467 16.9104C18.8151 16.9606 18.7983 17.0183 18.7983 17.0772C18.7983 17.136 18.8151 17.1938 18.8467 17.2439C18.8783 17.294 18.9235 17.3346 18.9773 17.3611L20.2334 17.9795L20.8664 19.2066C20.8935 19.2592 20.935 19.3034 20.9864 19.3342C21.0377 19.3651 21.0968 19.3815 21.1571 19.3815C21.2173 19.3815 21.2764 19.3651 21.3277 19.3342C21.3791 19.3034 21.4206 19.2592 21.4477 19.2066L22.0807 17.9795L23.3368 17.3611C23.3906 17.3346 23.4358 17.294 23.4674 17.2439C23.499 17.1938 23.5158 17.136 23.5158 17.0772C23.5158 17.0183 23.499 16.9606 23.4674 16.9104C23.4358 16.8603 23.3906 16.8197 23.3368 16.7932ZM21.6919 17.4588C21.6296 17.4895 21.5791 17.5388 21.5477 17.5997L21.1571 18.357L20.7664 17.5997C20.7351 17.5388 20.6845 17.4894 20.6222 17.4588L19.8471 17.0772L20.6222 16.6956C20.6845 16.6649 20.7351 16.6155 20.7664 16.5547L21.1571 15.7974L21.5477 16.5547C21.579 16.6155 21.6296 16.6649 21.6919 16.6956L22.467 17.0772L21.6919 17.4588Z" fill="#9579EE"/>
<path d="M22.5018 6.63789C23.8458 5.11223 24.298 3.87266 23.8078 3.04275C23.296 2.18124 21.8858 1.95618 19.7232 2.38796C19.3146 1.90877 18.8182 1.53076 18.2479 1.27954C16.5266 0.52143 14.388 1.01274 12.2045 2.66202C10.7195 1.53866 9.28533 0.95734 7.93863 0.933681C6.81068 0.913699 5.81099 1.29253 5.02363 2.0337L4.11695 0.274842C4.08981 0.222261 4.04826 0.178072 3.99694 0.147198C3.94561 0.116323 3.88651 0.0999756 3.82624 0.0999756C3.76596 0.0999756 3.70686 0.116323 3.65554 0.147198C3.60421 0.178072 3.56266 0.222261 3.53552 0.274842L2.47833 2.32574L0.378946 3.35864C0.325121 3.38514 0.279886 3.42572 0.248282 3.47586C0.216678 3.526 0.199946 3.58373 0.199951 3.64261C0.199956 3.7015 0.216697 3.75922 0.24831 3.80936C0.279922 3.85949 0.325163 3.90007 0.378992 3.92656L2.47833 4.95941L3.42707 6.79983C3.51581 8.07028 3.8962 9.33714 4.5434 10.5385C2.41064 12.5549 1.57002 14.2214 2.17525 15.2459C2.42357 15.6663 2.83616 15.951 3.40155 16.0923C3.68102 16.1621 3.99981 16.1969 4.35774 16.1969C4.79697 16.1969 5.29529 16.1441 5.85082 16.0394C5.97689 17.0705 6.13847 17.9951 6.33287 18.7883C6.81798 20.7675 7.45872 21.7823 8.29186 21.8905C8.34072 21.8968 8.38939 21.9 8.43806 21.9C9.02492 21.8999 9.59682 21.4369 10.1814 20.4901C10.7924 19.5005 11.4258 17.9562 12.0644 15.899C12.0837 15.8355 12.1361 15.7976 12.2045 15.7976C12.272 15.7976 12.3238 15.8355 12.3436 15.9002C12.9783 17.945 13.6083 19.4839 14.2162 20.4739C14.8449 21.4977 15.4589 21.9616 16.0932 21.8929C16.8278 21.8131 17.4115 21.0335 17.8775 19.5098C18.2555 18.2736 18.5415 16.5616 18.7083 14.5425C18.8905 14.5635 19.0757 14.5747 19.2636 14.5747C21.8597 14.5747 23.9718 12.5107 23.9718 9.97372C23.9717 8.66186 23.4066 7.4766 22.5018 6.63789ZM23.2444 3.36127C23.5756 3.92216 23.1224 4.96137 21.9999 6.23286C21.6839 6.01144 21.341 5.82918 20.9791 5.69023C20.9011 4.64693 20.6078 3.71512 20.1381 2.95788C21.7739 2.67092 22.9197 2.81483 23.2444 3.36127ZM7.92696 1.5695C9.16949 1.59134 10.578 2.19482 12.0002 3.31473C12.0037 3.31754 12.0077 3.31945 12.0114 3.32208C13.3238 4.27033 14.7164 4.78508 16.27 4.89429L16.3167 4.26002C15.0286 4.16947 13.8588 3.77325 12.753 3.05388C14.6822 1.64424 16.527 1.21905 17.9804 1.85927C19.2616 2.42365 20.1116 3.76281 20.3062 5.48787C19.964 5.41208 19.6143 5.3739 19.2635 5.37403C16.6667 5.37403 14.5539 7.43746 14.5539 9.97368C14.5539 10.577 14.6736 11.1534 14.8906 11.6818C13.8852 12.2515 11.8737 13.2811 9.8233 14.1152C8.53572 14.639 7.39471 15.023 6.41989 15.2633C6.31901 14.2815 6.2458 13.1839 6.20857 11.9736C6.20651 11.9065 6.18275 11.8418 6.1407 11.7887C4.70758 9.97817 4.23158 8.25638 4.10105 7.03656C4.10658 7.02798 4.11226 7.01953 4.117 7.01041L5.17424 4.95946L7.27357 3.92661C7.32742 3.90013 7.37267 3.85956 7.4043 3.80942C7.43592 3.75928 7.45267 3.70155 7.45267 3.64266C7.45268 3.58377 7.43594 3.52604 7.40432 3.47589C7.37271 3.42575 7.32746 3.38517 7.27362 3.35868L5.48843 2.48032C6.14869 1.86658 6.98346 1.5526 7.92696 1.5695ZM2.86708 4.43867L1.249 3.6426L2.86712 2.84648C2.92944 2.81582 2.98003 2.76641 3.01141 2.70552L3.82628 1.12477L4.64116 2.70552C4.67254 2.76641 4.72312 2.81582 4.78544 2.84648L6.40357 3.6426L4.78549 4.43867C4.72316 4.46933 4.67256 4.51875 4.64116 4.57963L3.82628 6.16043L3.01141 4.57963C2.98001 4.51875 2.92941 4.46933 2.86708 4.43867ZM3.56281 15.4761C3.16816 15.3775 2.89868 15.1983 2.73906 14.928C2.32539 14.2278 3.14073 12.7828 4.87525 11.1113C5.08625 11.4507 5.3152 11.7792 5.56118 12.0953C5.59967 13.2763 5.67316 14.3864 5.77914 15.405C4.84982 15.5855 4.10314 15.6112 3.56281 15.4761ZM16.0211 21.2609C15.7183 21.2935 14.6039 20.991 12.9669 15.7169C12.8654 15.3848 12.5589 15.1616 12.2044 15.1616C11.849 15.1616 11.5421 15.3848 11.4409 15.7156C9.79578 21.0158 8.6801 21.2997 8.37758 21.26C7.67222 21.1684 6.90649 19.3257 6.49124 15.9016C7.51841 15.6553 8.71413 15.2553 10.0735 14.7023C12.1221 13.8689 14.1362 12.8408 15.175 12.2555C15.7952 13.312 16.832 14.1063 18.065 14.4235C17.6924 19.0307 16.7764 21.1788 16.0211 21.2609ZM19.2635 13.9387C17.0256 13.9387 15.2049 12.16 15.2049 9.97363C15.2049 7.78804 17.0256 6.00998 19.2635 6.00998C21.5007 6.00998 23.3208 7.78804 23.3208 9.97363C23.3208 12.16 21.5007 13.9387 19.2635 13.9387ZM21.8581 8.92321H20.3387V7.43769C20.3387 7.35335 20.3044 7.27248 20.2434 7.21284C20.1824 7.15321 20.0996 7.11971 20.0133 7.11971H18.5137C18.4274 7.11971 18.3446 7.15321 18.2836 7.21284C18.2225 7.27248 18.1882 7.35335 18.1882 7.43769V8.92321H16.6676C16.5813 8.92321 16.4985 8.95671 16.4374 9.01634C16.3764 9.07597 16.3421 9.15685 16.3421 9.24118V10.7062C16.3421 10.7905 16.3764 10.8714 16.4374 10.931C16.4985 10.9906 16.5813 11.0242 16.6676 11.0242H18.1882V12.5097C18.1882 12.594 18.2225 12.6749 18.2836 12.7345C18.3446 12.7941 18.4274 12.8276 18.5137 12.8276H20.0133C20.0996 12.8276 20.1824 12.7941 20.2434 12.7345C20.3044 12.6749 20.3387 12.594 20.3387 12.5097V11.0242H21.8581C21.9444 11.0242 22.0272 10.9906 22.0882 10.931C22.1493 10.8714 22.1836 10.7905 22.1836 10.7062V9.24118C22.1836 9.15685 22.1493 9.07598 22.0882 9.01635C22.0272 8.95672 21.9444 8.92322 21.8581 8.92321ZM21.5326 10.3882H20.0133C19.9269 10.3882 19.8441 10.4217 19.7831 10.4813C19.7221 10.541 19.6878 10.6218 19.6878 10.7062V12.1917H18.8392V10.7062C18.8392 10.6218 18.8049 10.541 18.7438 10.4813C18.6828 10.4217 18.6 10.3882 18.5137 10.3882H16.993V9.55916H18.5137C18.5564 9.55916 18.5987 9.55093 18.6382 9.53495C18.6777 9.51897 18.7136 9.49555 18.7438 9.46602C18.774 9.4365 18.798 9.40144 18.8144 9.36287C18.8307 9.32429 18.8392 9.28294 18.8392 9.24118V7.75566H19.6878V9.24118C19.6878 9.32551 19.7221 9.40639 19.7831 9.46602C19.8441 9.52566 19.9269 9.55916 20.0133 9.55916H21.5326V10.3882ZM23.3368 16.7932L22.0807 16.1749L21.4477 14.9478C21.4206 14.8952 21.3791 14.851 21.3277 14.8201C21.2764 14.7892 21.2173 14.7729 21.1571 14.7729C21.0968 14.7729 21.0377 14.7892 20.9864 14.8201C20.935 14.851 20.8935 14.8952 20.8664 14.9478L20.2334 16.1749L18.9773 16.7932C18.9235 16.8197 18.8783 16.8603 18.8467 16.9104C18.8151 16.9606 18.7983 17.0183 18.7983 17.0772C18.7983 17.136 18.8151 17.1938 18.8467 17.2439C18.8783 17.294 18.9235 17.3346 18.9773 17.3611L20.2334 17.9795L20.8664 19.2066C20.8935 19.2592 20.935 19.3034 20.9864 19.3342C21.0377 19.3651 21.0968 19.3815 21.1571 19.3815C21.2173 19.3815 21.2764 19.3651 21.3277 19.3342C21.3791 19.3034 21.4206 19.2592 21.4477 19.2066L22.0807 17.9795L23.3368 17.3611C23.3906 17.3346 23.4358 17.294 23.4674 17.2439C23.499 17.1938 23.5158 17.136 23.5158 17.0772C23.5158 17.0183 23.499 16.9606 23.4674 16.9104C23.4358 16.8603 23.3906 16.8197 23.3368 16.7932ZM21.6919 17.4588C21.6296 17.4895 21.5791 17.5388 21.5477 17.5997L21.1571 18.357L20.7664 17.5997C20.7351 17.5388 20.6845 17.4894 20.6222 17.4588L19.8471 17.0772L20.6222 16.6956C20.6845 16.6649 20.7351 16.6155 20.7664 16.5547L21.1571 15.7974L21.5477 16.5547C21.579 16.6155 21.6296 16.6649 21.6919 16.6956L22.467 17.0772L21.6919 17.4588Z" stroke="#B198FF" stroke-width="0.2" mask="url(#path-1-outside-1_557_11021)"/>
</svg>
