<svg width="20" height="20" viewBox="0 0 20 20" fill="none" xmlns="http://www.w3.org/2000/svg">
<path d="M6.07408 4.08974C8.68629 3.86267 11.3133 3.86267 13.9255 4.08974L15.184 4.19914C16.0218 4.27197 16.7393 4.77169 17.1111 5.48651C17.1587 5.57795 17.1231 5.68867 17.0354 5.74293L11.8138 8.97537C10.6939 9.66863 9.2818 9.68318 8.14786 9.01313L2.89134 5.907C2.80642 5.85682 2.76744 5.75352 2.80571 5.6626C3.14584 4.85463 3.91053 4.27781 4.81556 4.19914L6.07408 4.08974Z" fill="#E7975E"/>
<path d="M2.80143 7.30579C2.67146 7.22899 2.50563 7.31164 2.49048 7.46184C2.27903 9.55821 2.3302 11.6744 2.644 13.7612C2.80943 14.8613 3.70727 15.7046 4.81556 15.801L6.07409 15.9104C8.68628 16.1374 11.3133 16.1374 13.9255 15.9104L15.184 15.801C16.2923 15.7046 17.1901 14.8613 17.3555 13.7612C17.6785 11.6136 17.7233 9.43484 17.4899 7.27862C17.4735 7.12736 17.3049 7.04624 17.1755 7.12632L12.4717 10.0382C10.9566 10.9761 9.0461 10.9958 7.51195 10.0893L2.80143 7.30579Z" fill="#E7975E"/>
</svg>
