<svg width="25" height="24" viewBox="0 0 25 24" fill="none" xmlns="http://www.w3.org/2000/svg">
<g clip-path="url(#clip0_557_11024)">
<path d="M12.9001 16.4195C11.5536 16.4195 10.2373 16.0202 9.11769 15.2721C7.99808 14.524 7.12546 13.4607 6.61016 12.2167C6.09487 10.9726 5.96004 9.60374 6.22274 8.28308C6.48544 6.96242 7.13385 5.74932 8.086 4.79718C9.03814 3.84503 10.2512 3.19662 11.5719 2.93392C12.8926 2.67123 14.2615 2.80605 15.5055 3.32135C16.7495 3.83664 17.8128 4.70927 18.5609 5.82887C19.309 6.94847 19.7083 8.26476 19.7083 9.6113C19.7063 11.4163 18.9883 13.1468 17.712 14.4232C16.4356 15.6995 14.7051 16.4174 12.9001 16.4195ZM12.9001 3.6591C11.7228 3.6591 10.5719 4.00823 9.59297 4.66233C8.61406 5.31643 7.85109 6.24613 7.40057 7.33385C6.95004 8.42158 6.83218 9.61847 7.0619 10.7732C7.29162 11.9279 7.85859 12.9885 8.69113 13.821C9.52366 14.6535 10.5844 15.2204 11.7391 15.45C12.8938 15.6797 14.0907 15.5617 15.1784 15.1111C16.2661 14.6605 17.1957 13.8975 17.8497 12.9185C18.5038 11.9396 18.8528 10.7886 18.8527 9.6113C18.8509 8.03316 18.2232 6.52018 17.1072 5.40431C15.9913 4.28843 14.4783 3.6608 12.9001 3.6591Z" fill="#3D3E56"/>
<path d="M18.3393 18.6878C20.5287 16.3161 22.473 13.038 22.473 9.57296C22.473 7.03406 21.4644 4.59913 19.6692 2.80386C17.8739 1.00858 15.439 0 12.9001 0C10.3612 0 7.92623 1.00858 6.13095 2.80386C4.33567 4.59913 3.3271 7.03406 3.3271 9.57296C3.3271 13.038 5.27138 16.3166 7.46078 18.6878C5.013 19.0052 1.76782 19.7029 1.76782 21.18C1.76782 23.4105 9.04957 24 12.9001 24C16.7506 24 24.0323 23.4105 24.0323 21.18C24.0323 19.7029 20.7871 19.0052 18.3393 18.6878ZM12.9001 0.894498C15.2061 0.891992 17.419 1.80428 19.0532 3.43124C20.6875 5.05819 21.6096 7.26695 21.6175 9.57296C21.6175 15.8541 14.5051 21.5099 12.9001 21.5099C11.295 21.5099 4.18267 15.8541 4.18267 9.57254C4.19059 7.2666 5.11283 5.05795 6.74707 3.43109C8.38131 1.80422 10.5941 0.891992 12.9001 0.894498ZM12.9001 23.1444C6.25058 23.1444 2.62339 21.847 2.62339 21.18C2.62339 20.8288 4.04235 19.9211 8.21454 19.4608C10.0664 21.2558 11.9551 22.3654 12.9001 22.3654C13.845 22.3654 15.7337 21.2558 17.5856 19.4608C21.7578 19.9206 23.1767 20.8288 23.1767 21.1805C23.1767 21.847 19.5495 23.1444 12.9001 23.1444Z" fill="#3D3E56"/>
<path d="M11.7465 14.1703C11.1065 14.1703 10.6685 13.3378 10.6633 13.3289C10.3963 12.7573 10.2453 12.1385 10.2189 11.5082C10.1798 10.8695 10.1515 10.2301 10.1342 9.59045C10.1311 9.49115 10.1018 9.39444 10.049 9.31025C9.41805 8.30495 9.22341 7.26116 9.51601 6.44666C9.63965 6.10299 9.84904 5.79661 10.1243 5.55658C10.3996 5.31656 10.7317 5.15085 11.089 5.07518C11.5471 5.00206 12.0163 5.0962 12.4108 5.34041C12.5626 5.42083 12.7294 5.4689 12.9006 5.48158C13.0718 5.46878 13.2384 5.42071 13.39 5.34041C13.7804 5.09784 14.2449 5.00329 14.6991 5.0739C15.0587 5.148 15.3934 5.31316 15.6709 5.55359C15.9485 5.79402 16.1598 6.10167 16.2844 6.44709C16.5766 7.26116 16.3824 8.30495 15.7514 9.31153C15.6984 9.3953 15.6688 9.49178 15.6658 9.59088C15.6487 10.2223 15.6205 10.8678 15.5816 11.5082C15.5552 12.1382 15.4043 12.7567 15.1375 13.328C15.132 13.3383 14.6255 14.3008 13.9081 14.1558C13.3597 14.048 13.1526 13.2792 13.147 12.789C13.1325 12.357 13.0492 11.9302 12.9002 11.5245C12.7512 11.9301 12.6678 12.357 12.6534 12.789C12.6478 13.2792 12.4408 14.048 11.8919 14.1562C11.844 14.1655 11.7953 14.1703 11.7465 14.1703ZM11.412 5.90893C11.3396 5.90974 11.2673 5.91489 11.1955 5.92433C10.9958 5.98032 10.8124 6.08311 10.6604 6.22416C10.5084 6.36522 10.3922 6.54048 10.3215 6.73541C10.1213 7.29282 10.2903 8.08593 10.7737 8.85637C10.9073 9.06978 10.9819 9.31483 10.9897 9.56649C11.0068 10.1898 11.0346 10.825 11.0727 11.456C11.0938 11.9708 11.2147 12.4765 11.4286 12.9451C11.4992 13.0668 11.5891 13.1761 11.6947 13.269C11.7603 13.114 11.7952 12.9478 11.7974 12.7796C11.8127 11.9695 12.0455 11.1784 12.4716 10.4892C12.5237 10.426 12.5891 10.3747 12.6632 10.3398C12.7372 10.3049 12.8181 10.2868 12.9 10.2868C12.9819 10.2868 13.0628 10.3049 13.1368 10.3398C13.2109 10.3747 13.2763 10.4256 13.3284 10.4888C13.7545 11.1781 13.9874 11.9693 14.0026 12.7796C14.0047 12.9477 14.0398 13.1138 14.1057 13.2685C14.2111 13.1752 14.301 13.0657 14.3722 12.9443C14.5858 12.4757 14.7064 11.9701 14.7273 11.4556C14.7658 10.825 14.794 10.1893 14.8107 9.56735C14.8184 9.31572 14.8928 9.07065 15.0263 8.85722C15.5097 8.08636 15.6791 7.29324 15.4789 6.73584C15.409 6.54234 15.2944 6.36809 15.1443 6.22729C14.9943 6.08649 14.8132 5.98313 14.6156 5.92562C14.3475 5.87447 14.07 5.92576 13.8379 6.06935C13.5515 6.23246 13.23 6.32431 12.9006 6.33715C12.5711 6.32443 12.2495 6.23257 11.9629 6.06935C11.7986 5.96393 11.6072 5.90823 11.412 5.90893Z" fill="#3D3E56"/>
</g>
<defs>
<clipPath id="clip0_557_11024">
<rect width="24" height="24" fill="white" transform="translate(0.900024)"/>
</clipPath>
</defs>
</svg>
