<svg width="18" height="18" viewBox="0 0 18 18" fill="none" xmlns="http://www.w3.org/2000/svg">
<path d="M6.5625 7.5C6.5625 6.15381 7.65381 5.0625 9 5.0625C10.3462 5.0625 11.4375 6.15381 11.4375 7.5C11.4375 8.84619 10.3462 9.9375 9 9.9375C7.65381 9.9375 6.5625 8.84619 6.5625 7.5Z" fill="currentColor"/>
<path fill-rule="evenodd" clip-rule="evenodd" d="M2.83016 6.65804C3.08789 3.53134 5.70073 1.125 8.83804 1.125H9.162C12.2993 1.125 14.9122 3.53134 15.1699 6.65804C15.3086 8.34149 14.7886 10.0131 13.7194 11.3207L10.1246 15.7171C9.54337 16.4279 8.45667 16.4279 7.87544 15.7171L4.28064 11.3207C3.2114 10.0131 2.69139 8.34149 2.83016 6.65804ZM9 3.9375C7.03249 3.9375 5.4375 5.53249 5.4375 7.5C5.4375 9.46751 7.03249 11.0625 9 11.0625C10.9675 11.0625 12.5625 9.46751 12.5625 7.5C12.5625 5.53249 10.9675 3.9375 9 3.9375Z" fill="currentColor"/>
</svg>
