<svg width="25" height="24" viewBox="0 0 25 24" fill="none" xmlns="http://www.w3.org/2000/svg">
<g clip-path="url(#clip0_557_10995)">
<path d="M20.6203 15.5369C20.1303 15.2517 19.453 15.2324 18.6058 15.479C17.7585 15.2324 17.0812 15.2517 16.5913 15.5369C16.2054 15.7616 15.9427 16.15 15.8318 16.6599C15.703 17.255 15.8032 17.8813 16.1157 18.4241C16.3585 18.8462 16.4656 19.3517 16.4805 19.427C16.6922 21.2074 17.4398 21.4415 17.5867 21.4701C17.6384 21.4801 17.7131 21.495 17.8009 21.495C17.9192 21.495 18.0598 21.4682 18.1968 21.3674C18.3568 21.2497 18.4906 21.0617 18.6033 20.6372C18.7041 20.9117 18.8455 21.1663 19.044 21.3163C19.2171 21.4471 19.4169 21.4969 19.6255 21.4614C19.8788 21.4352 20.5468 21.1937 20.7317 19.4245C20.7485 19.3398 20.8562 18.8412 21.0959 18.4241C21.4078 17.8813 21.5086 17.2544 21.3797 16.6599C21.2689 16.15 21.0062 15.7616 20.6203 15.5369ZM20.4484 18.0525C20.121 18.6221 19.9996 19.2757 19.9946 19.3031C19.9928 19.3124 19.9915 19.3224 19.9903 19.3324C19.8732 20.479 19.5589 20.6988 19.5159 20.7231C19.5103 20.7237 19.5053 20.7249 19.4997 20.7256C19.3622 20.6565 19.1598 20.062 19.1107 19.412C19.1063 19.3548 19.0889 19.2994 19.0602 19.2502C18.8922 18.9651 18.6749 18.9302 18.5597 18.9358C18.3275 18.9458 18.1638 19.1195 18.0879 19.2788C18.0697 19.3166 18.0581 19.3573 18.0536 19.399C17.9459 20.3825 17.8214 20.6664 17.7704 20.7449C17.766 20.7442 17.7617 20.7436 17.7567 20.7424C17.7006 20.7106 17.3539 20.4691 17.2207 19.3261C17.22 19.3182 17.2188 19.3103 17.2169 19.3025C17.212 19.2751 17.09 18.6214 16.7631 18.0518C16.5434 17.6696 16.4724 17.2314 16.5621 16.818C16.6287 16.5099 16.7613 16.3019 16.9667 16.1824C17.2848 15.9975 17.8127 16.0125 18.4937 16.2254C18.5666 16.2484 18.6444 16.2484 18.7172 16.2254C19.3983 16.0118 19.9262 15.9969 20.2443 16.1824C20.4497 16.3019 20.5823 16.5099 20.6489 16.818C20.7385 17.2314 20.667 17.6696 20.4478 18.0518L20.4484 18.0525Z" fill="#3D3E56"/>
<mask id="path-2-outside-1_557_10995" maskUnits="userSpaceOnUse" x="0.195801" y="-1" width="25" height="26" fill="black">
<rect fill="white" x="0.195801" y="-1" width="25" height="26"/>
<path d="M18.6058 12.8027C17.5656 12.8027 16.5907 13.0885 15.7553 13.5846C15.2293 13.3568 14.6765 13.203 14.1069 13.1264C13.9587 13.1071 13.8168 13.058 13.6854 12.9839C13.6723 12.9752 13.6586 12.9665 13.6443 12.9596C13.4551 12.8407 13.3032 12.6739 13.2048 12.4722L12.7379 11.5266C13.9058 10.6015 14.2239 9.35398 14.3067 8.85596C14.8638 8.5447 15.2056 8.1382 15.3251 7.64516C15.4745 7.02762 15.2156 6.46237 15.0593 6.19531C15.4963 4.49397 15.4185 3.10326 14.8277 2.06054C14.3335 1.18776 13.6263 0.85098 13.4215 0.768185C13.3742 0.748887 13.3268 0.727722 13.2802 0.706556C11.0248 -0.317489 9.56745 -0.0410901 8.74261 0.371018C8.06219 0.710914 7.68619 1.19586 7.52745 1.443C6.84953 1.64967 6.3291 2.05307 5.97862 2.64384C5.19923 3.95735 5.52418 5.79565 5.63188 6.29056C5.33556 7.05128 5.33556 7.67504 5.63188 8.14504C5.89085 8.55653 6.31105 8.73457 6.6055 8.81052C6.73187 10.0456 7.37929 10.8897 8.08087 11.4531L7.57538 12.474C7.47685 12.6754 7.32342 12.8448 7.13277 12.9627C7.12219 12.9683 7.11161 12.9739 7.10165 12.9808C6.96718 13.058 6.82338 13.1078 6.67335 13.1277C6.28801 13.1794 5.90703 13.2678 5.5385 13.3898C5.46317 13.3935 5.39345 13.4197 5.33618 13.4614C2.85606 14.3783 1.1958 16.7464 1.1958 19.3878V21.7726C1.1958 22.5788 1.85194 23.2349 2.65872 23.2349H15.7846C16.64 23.7367 17.614 24.0008 18.6058 24C21.6929 24 24.2041 21.4888 24.2041 18.4017C24.2041 15.3146 21.6929 12.8034 18.6058 12.8034V12.8027ZM6.62231 3.02295C6.89746 2.5598 7.30396 2.26597 7.86485 2.12403C7.91775 2.1106 7.96706 2.08575 8.00932 2.05122C8.05158 2.0167 8.08578 1.97335 8.1095 1.9242C8.12009 1.90179 9.23938 -0.307529 12.9714 1.38635C13.028 1.41187 13.0847 1.43739 13.142 1.46043C13.2472 1.50276 13.7925 1.74865 14.1772 2.42782C14.6497 3.262 14.7126 4.45599 14.3633 5.89339C14.2457 5.82242 14.1654 5.60952 14.1455 5.51926C14.1442 5.51179 14.1423 5.50494 14.1405 5.49747C13.8186 4.30783 13.2633 3.56268 12.4889 3.28254C11.6379 2.97502 10.7895 3.33857 10.3973 3.55334C9.85754 3.23336 9.20888 3.15368 8.6013 3.33546C7.93831 3.53404 7.39921 4.01463 7.12219 4.65395C6.85575 5.27025 6.5364 5.59894 6.29735 5.77138C6.19712 5.11586 6.10624 3.88763 6.62168 3.02108L6.62231 3.02295ZM7.33198 8.48245C7.32638 8.29009 7.17199 8.13322 6.97963 8.12077C6.97465 8.12077 6.47352 8.08528 6.26187 7.74352C6.07511 7.44284 6.16973 6.98965 6.30731 6.61738C6.64845 6.47545 7.327 6.06645 7.80883 4.95276C7.99745 4.51638 8.36474 4.18831 8.81669 4.05322C9.25245 3.92249 9.70004 3.98723 10.0767 4.235C10.1097 4.25679 10.1433 4.2792 10.1769 4.30285C10.3051 4.39249 10.4763 4.39187 10.6052 4.30285C10.6139 4.29663 11.473 3.70897 12.2399 3.98848C12.7684 4.18084 13.165 4.75231 13.4184 5.68547C13.442 5.78881 13.5746 6.29429 13.9842 6.5377C14.1305 6.62485 14.2936 6.66718 14.4654 6.66407C14.5613 6.85332 14.6758 7.16395 14.5987 7.47397C14.5208 7.78959 14.2519 8.06038 13.8 8.27826C13.7412 8.30688 13.6909 8.35037 13.6541 8.40443C13.6173 8.45848 13.5952 8.52122 13.5902 8.58641C13.5833 8.67605 13.391 10.7945 11.0814 11.5782C10.6133 11.737 10.1028 11.7158 9.64464 11.5191C9.36699 11.3996 9.07379 11.2477 8.79365 11.0553C8.77685 11.041 8.75817 11.0286 8.73887 11.0173C8.00617 10.4988 7.37057 9.69948 7.33322 8.48245H7.33198ZM10.0169 22.4873H2.65872C2.26404 22.4873 1.94282 22.1667 1.94282 21.772V19.3871C1.94282 17.2077 3.22522 15.2393 5.18304 14.3323V16.569C4.33206 16.747 3.68588 17.5208 3.68588 18.4347V19.3417C3.68588 19.8546 4.10297 20.2717 4.61592 20.2717H4.90415C5.11021 20.2717 5.27766 20.1043 5.27766 19.8982C5.27766 19.6922 5.11021 19.5247 4.90415 19.5247H4.61592C4.51508 19.5247 4.4329 19.4425 4.4329 19.3417V18.4347C4.4329 17.8072 4.92781 17.288 5.53663 17.2774C5.84478 17.2737 6.13363 17.3888 6.35151 17.6061C6.56379 17.8184 6.6802 18.1004 6.6802 18.4004V19.3411C6.6802 19.4419 6.59803 19.5241 6.49718 19.5241H6.20895C6.0029 19.5241 5.83544 19.6915 5.83544 19.8976C5.83544 20.1036 6.0029 20.2711 6.20895 20.2711H6.49718C7.01014 20.2711 7.42722 19.854 7.42722 19.3411V18.4004C7.42722 17.9006 7.233 17.4305 6.87941 17.0776C6.61484 16.8136 6.28677 16.6399 5.93069 16.5677V14.0478C6.20584 13.9656 6.48784 13.9046 6.77171 13.8666C6.94421 13.8439 7.11268 13.7972 7.27222 13.7278L10.0169 15.6508V22.4867V22.4873ZM7.92213 13.2721C8.05213 13.1327 8.16099 12.975 8.24521 12.804L8.70277 11.8802C8.93248 12.0146 9.15409 12.1229 9.34894 12.2064C9.69382 12.3549 10.0653 12.4315 10.4408 12.4317C10.7378 12.4317 11.0347 12.3832 11.3211 12.2867C11.6112 12.1883 11.8733 12.0719 12.1111 11.9424L12.5356 12.8027C12.6199 12.9744 12.729 13.1328 12.8593 13.2727L10.391 15.0015L7.92275 13.2727L7.92213 13.2721ZM10.7639 22.4873V15.6514L13.5086 13.729C13.6692 13.7981 13.8367 13.8448 14.0091 13.8672C14.3546 13.9139 14.6939 13.993 15.0232 14.1032C13.7925 15.131 13.0081 16.6761 13.0081 18.4011C13.0081 20.0115 13.6923 21.4651 14.7842 22.4873H10.7639ZM18.6058 23.2524C15.9308 23.2524 13.7545 21.076 13.7545 18.4011C13.7545 15.7261 15.9308 13.5498 18.6058 13.5498C21.2808 13.5498 23.4571 15.7261 23.4571 18.4011C23.4571 21.076 21.2808 23.2524 18.6058 23.2524Z"/>
</mask>
<path d="M18.6058 12.8027C17.5656 12.8027 16.5907 13.0885 15.7553 13.5846C15.2293 13.3568 14.6765 13.203 14.1069 13.1264C13.9587 13.1071 13.8168 13.058 13.6854 12.9839C13.6723 12.9752 13.6586 12.9665 13.6443 12.9596C13.4551 12.8407 13.3032 12.6739 13.2048 12.4722L12.7379 11.5266C13.9058 10.6015 14.2239 9.35398 14.3067 8.85596C14.8638 8.5447 15.2056 8.1382 15.3251 7.64516C15.4745 7.02762 15.2156 6.46237 15.0593 6.19531C15.4963 4.49397 15.4185 3.10326 14.8277 2.06054C14.3335 1.18776 13.6263 0.85098 13.4215 0.768185C13.3742 0.748887 13.3268 0.727722 13.2802 0.706556C11.0248 -0.317489 9.56745 -0.0410901 8.74261 0.371018C8.06219 0.710914 7.68619 1.19586 7.52745 1.443C6.84953 1.64967 6.3291 2.05307 5.97862 2.64384C5.19923 3.95735 5.52418 5.79565 5.63188 6.29056C5.33556 7.05128 5.33556 7.67504 5.63188 8.14504C5.89085 8.55653 6.31105 8.73457 6.6055 8.81052C6.73187 10.0456 7.37929 10.8897 8.08087 11.4531L7.57538 12.474C7.47685 12.6754 7.32342 12.8448 7.13277 12.9627C7.12219 12.9683 7.11161 12.9739 7.10165 12.9808C6.96718 13.058 6.82338 13.1078 6.67335 13.1277C6.28801 13.1794 5.90703 13.2678 5.5385 13.3898C5.46317 13.3935 5.39345 13.4197 5.33618 13.4614C2.85606 14.3783 1.1958 16.7464 1.1958 19.3878V21.7726C1.1958 22.5788 1.85194 23.2349 2.65872 23.2349H15.7846C16.64 23.7367 17.614 24.0008 18.6058 24C21.6929 24 24.2041 21.4888 24.2041 18.4017C24.2041 15.3146 21.6929 12.8034 18.6058 12.8034V12.8027ZM6.62231 3.02295C6.89746 2.5598 7.30396 2.26597 7.86485 2.12403C7.91775 2.1106 7.96706 2.08575 8.00932 2.05122C8.05158 2.0167 8.08578 1.97335 8.1095 1.9242C8.12009 1.90179 9.23938 -0.307529 12.9714 1.38635C13.028 1.41187 13.0847 1.43739 13.142 1.46043C13.2472 1.50276 13.7925 1.74865 14.1772 2.42782C14.6497 3.262 14.7126 4.45599 14.3633 5.89339C14.2457 5.82242 14.1654 5.60952 14.1455 5.51926C14.1442 5.51179 14.1423 5.50494 14.1405 5.49747C13.8186 4.30783 13.2633 3.56268 12.4889 3.28254C11.6379 2.97502 10.7895 3.33857 10.3973 3.55334C9.85754 3.23336 9.20888 3.15368 8.6013 3.33546C7.93831 3.53404 7.39921 4.01463 7.12219 4.65395C6.85575 5.27025 6.5364 5.59894 6.29735 5.77138C6.19712 5.11586 6.10624 3.88763 6.62168 3.02108L6.62231 3.02295ZM7.33198 8.48245C7.32638 8.29009 7.17199 8.13322 6.97963 8.12077C6.97465 8.12077 6.47352 8.08528 6.26187 7.74352C6.07511 7.44284 6.16973 6.98965 6.30731 6.61738C6.64845 6.47545 7.327 6.06645 7.80883 4.95276C7.99745 4.51638 8.36474 4.18831 8.81669 4.05322C9.25245 3.92249 9.70004 3.98723 10.0767 4.235C10.1097 4.25679 10.1433 4.2792 10.1769 4.30285C10.3051 4.39249 10.4763 4.39187 10.6052 4.30285C10.6139 4.29663 11.473 3.70897 12.2399 3.98848C12.7684 4.18084 13.165 4.75231 13.4184 5.68547C13.442 5.78881 13.5746 6.29429 13.9842 6.5377C14.1305 6.62485 14.2936 6.66718 14.4654 6.66407C14.5613 6.85332 14.6758 7.16395 14.5987 7.47397C14.5208 7.78959 14.2519 8.06038 13.8 8.27826C13.7412 8.30688 13.6909 8.35037 13.6541 8.40443C13.6173 8.45848 13.5952 8.52122 13.5902 8.58641C13.5833 8.67605 13.391 10.7945 11.0814 11.5782C10.6133 11.737 10.1028 11.7158 9.64464 11.5191C9.36699 11.3996 9.07379 11.2477 8.79365 11.0553C8.77685 11.041 8.75817 11.0286 8.73887 11.0173C8.00617 10.4988 7.37057 9.69948 7.33322 8.48245H7.33198ZM10.0169 22.4873H2.65872C2.26404 22.4873 1.94282 22.1667 1.94282 21.772V19.3871C1.94282 17.2077 3.22522 15.2393 5.18304 14.3323V16.569C4.33206 16.747 3.68588 17.5208 3.68588 18.4347V19.3417C3.68588 19.8546 4.10297 20.2717 4.61592 20.2717H4.90415C5.11021 20.2717 5.27766 20.1043 5.27766 19.8982C5.27766 19.6922 5.11021 19.5247 4.90415 19.5247H4.61592C4.51508 19.5247 4.4329 19.4425 4.4329 19.3417V18.4347C4.4329 17.8072 4.92781 17.288 5.53663 17.2774C5.84478 17.2737 6.13363 17.3888 6.35151 17.6061C6.56379 17.8184 6.6802 18.1004 6.6802 18.4004V19.3411C6.6802 19.4419 6.59803 19.5241 6.49718 19.5241H6.20895C6.0029 19.5241 5.83544 19.6915 5.83544 19.8976C5.83544 20.1036 6.0029 20.2711 6.20895 20.2711H6.49718C7.01014 20.2711 7.42722 19.854 7.42722 19.3411V18.4004C7.42722 17.9006 7.233 17.4305 6.87941 17.0776C6.61484 16.8136 6.28677 16.6399 5.93069 16.5677V14.0478C6.20584 13.9656 6.48784 13.9046 6.77171 13.8666C6.94421 13.8439 7.11268 13.7972 7.27222 13.7278L10.0169 15.6508V22.4867V22.4873ZM7.92213 13.2721C8.05213 13.1327 8.16099 12.975 8.24521 12.804L8.70277 11.8802C8.93248 12.0146 9.15409 12.1229 9.34894 12.2064C9.69382 12.3549 10.0653 12.4315 10.4408 12.4317C10.7378 12.4317 11.0347 12.3832 11.3211 12.2867C11.6112 12.1883 11.8733 12.0719 12.1111 11.9424L12.5356 12.8027C12.6199 12.9744 12.729 13.1328 12.8593 13.2727L10.391 15.0015L7.92275 13.2727L7.92213 13.2721ZM10.7639 22.4873V15.6514L13.5086 13.729C13.6692 13.7981 13.8367 13.8448 14.0091 13.8672C14.3546 13.9139 14.6939 13.993 15.0232 14.1032C13.7925 15.131 13.0081 16.6761 13.0081 18.4011C13.0081 20.0115 13.6923 21.4651 14.7842 22.4873H10.7639ZM18.6058 23.2524C15.9308 23.2524 13.7545 21.076 13.7545 18.4011C13.7545 15.7261 15.9308 13.5498 18.6058 13.5498C21.2808 13.5498 23.4571 15.7261 23.4571 18.4011C23.4571 21.076 21.2808 23.2524 18.6058 23.2524Z" fill="#3D3E56"/>
<path d="M18.6058 12.8027C17.5656 12.8027 16.5907 13.0885 15.7553 13.5846C15.2293 13.3568 14.6765 13.203 14.1069 13.1264C13.9587 13.1071 13.8168 13.058 13.6854 12.9839C13.6723 12.9752 13.6586 12.9665 13.6443 12.9596C13.4551 12.8407 13.3032 12.6739 13.2048 12.4722L12.7379 11.5266C13.9058 10.6015 14.2239 9.35398 14.3067 8.85596C14.8638 8.5447 15.2056 8.1382 15.3251 7.64516C15.4745 7.02762 15.2156 6.46237 15.0593 6.19531C15.4963 4.49397 15.4185 3.10326 14.8277 2.06054C14.3335 1.18776 13.6263 0.85098 13.4215 0.768185C13.3742 0.748887 13.3268 0.727722 13.2802 0.706556C11.0248 -0.317489 9.56745 -0.0410901 8.74261 0.371018C8.06219 0.710914 7.68619 1.19586 7.52745 1.443C6.84953 1.64967 6.3291 2.05307 5.97862 2.64384C5.19923 3.95735 5.52418 5.79565 5.63188 6.29056C5.33556 7.05128 5.33556 7.67504 5.63188 8.14504C5.89085 8.55653 6.31105 8.73457 6.6055 8.81052C6.73187 10.0456 7.37929 10.8897 8.08087 11.4531L7.57538 12.474C7.47685 12.6754 7.32342 12.8448 7.13277 12.9627C7.12219 12.9683 7.11161 12.9739 7.10165 12.9808C6.96718 13.058 6.82338 13.1078 6.67335 13.1277C6.28801 13.1794 5.90703 13.2678 5.5385 13.3898C5.46317 13.3935 5.39345 13.4197 5.33618 13.4614C2.85606 14.3783 1.1958 16.7464 1.1958 19.3878V21.7726C1.1958 22.5788 1.85194 23.2349 2.65872 23.2349H15.7846C16.64 23.7367 17.614 24.0008 18.6058 24C21.6929 24 24.2041 21.4888 24.2041 18.4017C24.2041 15.3146 21.6929 12.8034 18.6058 12.8034V12.8027ZM6.62231 3.02295C6.89746 2.5598 7.30396 2.26597 7.86485 2.12403C7.91775 2.1106 7.96706 2.08575 8.00932 2.05122C8.05158 2.0167 8.08578 1.97335 8.1095 1.9242C8.12009 1.90179 9.23938 -0.307529 12.9714 1.38635C13.028 1.41187 13.0847 1.43739 13.142 1.46043C13.2472 1.50276 13.7925 1.74865 14.1772 2.42782C14.6497 3.262 14.7126 4.45599 14.3633 5.89339C14.2457 5.82242 14.1654 5.60952 14.1455 5.51926C14.1442 5.51179 14.1423 5.50494 14.1405 5.49747C13.8186 4.30783 13.2633 3.56268 12.4889 3.28254C11.6379 2.97502 10.7895 3.33857 10.3973 3.55334C9.85754 3.23336 9.20888 3.15368 8.6013 3.33546C7.93831 3.53404 7.39921 4.01463 7.12219 4.65395C6.85575 5.27025 6.5364 5.59894 6.29735 5.77138C6.19712 5.11586 6.10624 3.88763 6.62168 3.02108L6.62231 3.02295ZM7.33198 8.48245C7.32638 8.29009 7.17199 8.13322 6.97963 8.12077C6.97465 8.12077 6.47352 8.08528 6.26187 7.74352C6.07511 7.44284 6.16973 6.98965 6.30731 6.61738C6.64845 6.47545 7.327 6.06645 7.80883 4.95276C7.99745 4.51638 8.36474 4.18831 8.81669 4.05322C9.25245 3.92249 9.70004 3.98723 10.0767 4.235C10.1097 4.25679 10.1433 4.2792 10.1769 4.30285C10.3051 4.39249 10.4763 4.39187 10.6052 4.30285C10.6139 4.29663 11.473 3.70897 12.2399 3.98848C12.7684 4.18084 13.165 4.75231 13.4184 5.68547C13.442 5.78881 13.5746 6.29429 13.9842 6.5377C14.1305 6.62485 14.2936 6.66718 14.4654 6.66407C14.5613 6.85332 14.6758 7.16395 14.5987 7.47397C14.5208 7.78959 14.2519 8.06038 13.8 8.27826C13.7412 8.30688 13.6909 8.35037 13.6541 8.40443C13.6173 8.45848 13.5952 8.52122 13.5902 8.58641C13.5833 8.67605 13.391 10.7945 11.0814 11.5782C10.6133 11.737 10.1028 11.7158 9.64464 11.5191C9.36699 11.3996 9.07379 11.2477 8.79365 11.0553C8.77685 11.041 8.75817 11.0286 8.73887 11.0173C8.00617 10.4988 7.37057 9.69948 7.33322 8.48245H7.33198ZM10.0169 22.4873H2.65872C2.26404 22.4873 1.94282 22.1667 1.94282 21.772V19.3871C1.94282 17.2077 3.22522 15.2393 5.18304 14.3323V16.569C4.33206 16.747 3.68588 17.5208 3.68588 18.4347V19.3417C3.68588 19.8546 4.10297 20.2717 4.61592 20.2717H4.90415C5.11021 20.2717 5.27766 20.1043 5.27766 19.8982C5.27766 19.6922 5.11021 19.5247 4.90415 19.5247H4.61592C4.51508 19.5247 4.4329 19.4425 4.4329 19.3417V18.4347C4.4329 17.8072 4.92781 17.288 5.53663 17.2774C5.84478 17.2737 6.13363 17.3888 6.35151 17.6061C6.56379 17.8184 6.6802 18.1004 6.6802 18.4004V19.3411C6.6802 19.4419 6.59803 19.5241 6.49718 19.5241H6.20895C6.0029 19.5241 5.83544 19.6915 5.83544 19.8976C5.83544 20.1036 6.0029 20.2711 6.20895 20.2711H6.49718C7.01014 20.2711 7.42722 19.854 7.42722 19.3411V18.4004C7.42722 17.9006 7.233 17.4305 6.87941 17.0776C6.61484 16.8136 6.28677 16.6399 5.93069 16.5677V14.0478C6.20584 13.9656 6.48784 13.9046 6.77171 13.8666C6.94421 13.8439 7.11268 13.7972 7.27222 13.7278L10.0169 15.6508V22.4867V22.4873ZM7.92213 13.2721C8.05213 13.1327 8.16099 12.975 8.24521 12.804L8.70277 11.8802C8.93248 12.0146 9.15409 12.1229 9.34894 12.2064C9.69382 12.3549 10.0653 12.4315 10.4408 12.4317C10.7378 12.4317 11.0347 12.3832 11.3211 12.2867C11.6112 12.1883 11.8733 12.0719 12.1111 11.9424L12.5356 12.8027C12.6199 12.9744 12.729 13.1328 12.8593 13.2727L10.391 15.0015L7.92275 13.2727L7.92213 13.2721ZM10.7639 22.4873V15.6514L13.5086 13.729C13.6692 13.7981 13.8367 13.8448 14.0091 13.8672C14.3546 13.9139 14.6939 13.993 15.0232 14.1032C13.7925 15.131 13.0081 16.6761 13.0081 18.4011C13.0081 20.0115 13.6923 21.4651 14.7842 22.4873H10.7639ZM18.6058 23.2524C15.9308 23.2524 13.7545 21.076 13.7545 18.4011C13.7545 15.7261 15.9308 13.5498 18.6058 13.5498C21.2808 13.5498 23.4571 15.7261 23.4571 18.4011C23.4571 21.076 21.2808 23.2524 18.6058 23.2524Z" stroke="#3D3E56" stroke-width="0.2" mask="url(#path-2-outside-1_557_10995)"/>
</g>
<defs>
<clipPath id="clip0_557_10995">
<rect width="24" height="24" fill="white" transform="translate(0.699951)"/>
</clipPath>
</defs>
</svg>
