<svg width="13" height="12" viewBox="0 0 13 12" fill="none" xmlns="http://www.w3.org/2000/svg">
<path d="M6.0625 5.5625V0.75C6.0625 0.62225 6.10348 0.517396 6.18544 0.435437C6.2674 0.353479 6.37225 0.3125 6.5 0.3125C6.62775 0.3125 6.7326 0.353479 6.81456 0.435437C6.89652 0.517396 6.9375 0.62225 6.9375 0.75V5.5625H11.75C11.8777 5.5625 11.9826 5.60348 12.0646 5.68544C12.1465 5.7674 12.1875 5.87225 12.1875 6C12.1875 6.12775 12.1465 6.2326 12.0646 6.31456C11.9826 6.39652 11.8777 6.4375 11.75 6.4375H6.9375V11.25C6.9375 11.3777 6.89652 11.4826 6.81456 11.5646C6.7326 11.6465 6.62775 11.6875 6.5 11.6875C6.37225 11.6875 6.2674 11.6465 6.18544 11.5646C6.10348 11.4826 6.0625 11.3777 6.0625 11.25V6.4375H1.25C1.12225 6.4375 1.0174 6.39652 0.935437 6.31456C0.853479 6.2326 0.8125 6.12775 0.8125 6C0.8125 5.87225 0.853479 5.7674 0.935437 5.68544C1.0174 5.60348 1.12225 5.5625 1.25 5.5625H6.0625Z" fill="#B198FF"/>
</svg>
