<svg width="18" height="18" viewBox="0 0 18 18" fill="none" xmlns="http://www.w3.org/2000/svg">
<path d="M3.75028 7.39534C5.18758 10.5258 7.74508 13.0146 10.9247 14.3639L11.4344 14.591C12.6005 15.1105 13.9714 14.7158 14.6826 13.6557L15.3487 12.6629C15.5652 12.3401 15.4993 11.9054 15.1968 11.6613L12.9379 9.83898C12.6061 9.57132 12.1182 9.63366 11.8644 9.97616L11.1656 10.9191C9.3725 10.0346 7.91671 8.57881 7.0322 6.7857L7.97514 6.08691C8.31764 5.83309 8.37998 5.34521 8.11232 5.01342L6.28991 2.75446C6.0459 2.452 5.61128 2.38603 5.2885 2.60245L4.28887 3.27273C3.22211 3.98801 2.82958 5.37014 3.36113 6.53936L3.74969 7.39407L3.75028 7.39534Z" fill="currentColor"/>
</svg>
