<svg width="36" height="36" viewBox="0 0 36 36" fill="none" xmlns="http://www.w3.org/2000/svg">
<path d="M23.625 19.5C23.625 18.8787 23.1213 18.375 22.5 18.375H13.5C12.8787 18.375 12.375 18.8787 12.375 19.5C12.375 20.1213 12.8787 20.625 13.5 20.625H22.5C23.1213 20.625 23.625 20.1213 23.625 19.5Z" fill="#E7975E"/>
<path d="M23.625 25.5C23.625 24.8787 23.1213 24.375 22.5 24.375H13.5C12.8787 24.375 12.375 24.8787 12.375 25.5C12.375 26.1213 12.8787 26.625 13.5 26.625H22.5C23.1213 26.625 23.625 26.1213 23.625 25.5Z" fill="#E7975E"/>
<path fill-rule="evenodd" clip-rule="evenodd" d="M10.5 3.375C8.22183 3.375 6.375 5.22182 6.375 7.5V28.5C6.375 30.7782 8.22182 32.625 10.5 32.625H25.5C27.7782 32.625 29.625 30.7782 29.625 28.5V11.9515C29.625 11.3803 29.4387 10.8248 29.0944 10.369L24.5977 4.41756C24.1016 3.76095 23.3263 3.375 22.5033 3.375H10.5ZM8.625 7.5C8.625 6.46447 9.46447 5.625 10.5 5.625H21.375V12.2206C21.375 12.8419 21.8787 13.3456 22.5 13.3456H27.375V28.5C27.375 29.5355 26.5355 30.375 25.5 30.375H10.5C9.46447 30.375 8.625 29.5355 8.625 28.5V7.5Z" fill="#E7975E"/>
</svg>
