<svg width="40" height="40" viewBox="0 0 40 40" fill="none" xmlns="http://www.w3.org/2000/svg">
<path d="M29.1513 15.9999L9.33464 27.9499C8.16797 28.6499 6.66797 27.8166 6.66797 26.4499V13.1166C6.66797 7.2999 12.9513 3.66657 18.0013 6.56657L25.6513 10.9666L29.1346 12.9666C30.2846 13.6499 30.3013 15.3166 29.1513 15.9999Z" fill="white"/>
<path d="M30.1481 25.7667L23.3981 29.6667L16.6647 33.5501C14.2481 34.9334 11.5147 34.6501 9.53139 33.2501C8.56472 32.5834 8.68139 31.1001 9.69806 30.5001L30.8814 17.8001C31.8814 17.2001 33.1981 17.7667 33.3814 18.9167C33.7981 21.5001 32.7314 24.2834 30.1481 25.7667Z" fill="white"/>
</svg>
