<svg width="16" height="16" viewBox="0 0 16 16" fill="none" xmlns="http://www.w3.org/2000/svg">
<path d="M16 6C16.0012 5.63294 15.9014 5.27263 15.7114 4.95853C15.5215 4.64443 15.2488 4.38866 14.9232 4.21924C14.5975 4.04981 14.2316 3.97327 13.8653 3.99798C13.4991 4.0227 13.1467 4.14773 12.8468 4.35937C12.5469 4.57102 12.3111 4.86111 12.165 5.19788C12.019 5.53466 11.9685 5.90512 12.019 6.26869C12.0696 6.63225 12.2192 6.97491 12.4514 7.25912C12.6837 7.54333 12.9898 7.75813 13.336 7.88V10.664C13.336 11.7249 12.9146 12.7423 12.1644 13.4924C11.4143 14.2426 10.3969 14.664 9.336 14.664C8.27513 14.664 7.25772 14.2426 6.50757 13.4924C5.75743 12.7423 5.336 11.7249 5.336 10.664V10.616C6.44572 10.4547 7.46041 9.89965 8.19479 9.05218C8.92916 8.20472 9.33422 7.12138 9.336 6V3.336C9.336 2.89791 9.24971 2.46411 9.08206 2.05937C8.91441 1.65463 8.66868 1.28687 8.35891 0.977092C8.04913 0.667316 7.68137 0.421588 7.27663 0.253938C6.87189 0.0862882 6.43809 0 6 0C5.82284 2.63996e-09 5.65293 0.0703784 5.52765 0.195653C5.40238 0.320927 5.332 0.490835 5.332 0.668C5.332 0.845165 5.40238 1.01507 5.52765 1.14035C5.65293 1.26562 5.82284 1.336 6 1.336C6.53043 1.336 7.03914 1.54671 7.41421 1.92179C7.78929 2.29686 8 2.80557 8 3.336V6C7.95807 6.85546 7.58872 7.66202 6.96844 8.25264C6.34817 8.84326 5.52449 9.17268 4.668 9.17268C3.81151 9.17268 2.98783 8.84326 2.36756 8.25264C1.74728 7.66202 1.37793 6.85546 1.336 6V3.336C1.336 2.80557 1.54671 2.29686 1.92179 1.92179C2.29686 1.54671 2.80557 1.336 3.336 1.336C3.51316 1.336 3.68307 1.26562 3.80835 1.14035C3.93362 1.01507 4.004 0.845165 4.004 0.668C4.004 0.490835 3.93362 0.320927 3.80835 0.195653C3.68307 0.0703784 3.51316 2.63996e-09 3.336 0C2.45124 0 1.60271 0.35147 0.977092 0.977092C0.35147 1.60271 0 2.45124 0 3.336L0 6C0.00178085 7.12138 0.40684 8.20472 1.14121 9.05218C1.87559 9.89965 2.89028 10.4547 4 10.616V10.664C4.0534 12.0424 4.63853 13.3466 5.63263 14.3029C6.62674 15.2592 7.95257 15.7934 9.332 15.7934C10.7114 15.7934 12.0373 15.2592 13.0314 14.3029C14.0255 13.3466 14.6106 12.0424 14.664 10.664V7.88C15.0535 7.7429 15.3911 7.48859 15.6303 7.15197C15.8695 6.81536 15.9986 6.41295 16 6ZM14 6.664C13.8239 6.664 13.655 6.59404 13.5305 6.46952C13.406 6.345 13.336 6.1761 13.336 6C13.336 5.8239 13.406 5.655 13.5305 5.53048C13.655 5.40596 13.8239 5.336 14 5.336C14.1761 5.336 14.345 5.40596 14.4695 5.53048C14.594 5.655 14.664 5.8239 14.664 6C14.664 6.1761 14.594 6.345 14.4695 6.46952C14.345 6.59404 14.1761 6.664 14 6.664Z" fill="#B198FF"/>
</svg>
