<svg width="16" height="16" viewBox="0 0 16 16" fill="none" xmlns="http://www.w3.org/2000/svg">
<path fill-rule="evenodd" clip-rule="evenodd" d="M0.916992 7.99996C0.916992 4.08794 4.08831 0.916626 8.00033 0.916626C11.9123 0.916626 15.0837 4.08794 15.0837 7.99996C15.0837 11.912 11.9123 15.0833 8.00033 15.0833C4.08831 15.0833 0.916992 11.912 0.916992 7.99996ZM8.62533 3.83329C8.62533 3.48811 8.3455 3.20829 8.00033 3.20829C7.65515 3.20829 7.37533 3.48811 7.37533 3.83329V7.99996C7.37533 8.21545 7.48634 8.41575 7.66908 8.52996L10.1691 10.0925C10.4618 10.2754 10.8474 10.1864 11.0303 9.89371C11.2133 9.601 11.1243 9.2154 10.8316 9.03246L8.62533 7.65355V3.83329Z" fill="#E7975E"/>
</svg>
