<svg width="25" height="24" viewBox="0 0 25 24" fill="none" xmlns="http://www.w3.org/2000/svg">
<mask id="path-1-outside-1_557_11000" maskUnits="userSpaceOnUse" x="0.457153" y="-0.244751" width="23" height="24" fill="black">
<rect fill="white" x="0.457153" y="-0.244751" width="23" height="24"/>
<path d="M4.76315 10.3335C4.93265 11.4109 5.0669 12.2651 5.6744 12.2651C5.68265 12.2651 5.69053 12.2651 5.6984 12.2644C6.22565 12.2449 6.38315 11.6359 6.5354 11.0475C6.5879 10.8435 6.6704 10.5262 6.74803 10.3759C6.82565 10.5259 6.90815 10.8435 6.96103 11.0475C7.11328 11.6362 7.27078 12.2449 7.79803 12.2644L7.8224 12.2651C8.42953 12.2651 8.56378 11.4109 8.73365 10.3331C8.8049 9.8775 8.90315 9.25387 9.01115 9.08962C9.3149 8.62537 9.46715 7.66537 9.20953 6.9765C9.03328 6.5055 8.72653 6.33037 8.50003 6.267C8.0429 6.13687 7.56065 6.23362 7.1399 6.537C7.02661 6.62126 6.88916 6.66673 6.74797 6.66666C6.60677 6.66659 6.46937 6.62099 6.35615 6.53662C5.93615 6.23362 5.4524 6.13762 4.99603 6.26662C4.7699 6.33037 4.46315 6.5055 4.2869 6.9765C4.0289 7.66575 4.1819 8.62575 4.48565 9.08962C4.59328 9.25387 4.69153 9.87787 4.76315 10.3335ZM4.98928 7.23937C5.04215 7.09687 5.11303 7.01287 5.19965 6.98812C5.43965 6.92212 5.6804 6.97425 5.91778 7.14525C6.15947 7.32003 6.45014 7.41411 6.7484 7.41411C7.04667 7.41411 7.33733 7.32003 7.57903 7.14525C7.8164 6.97387 8.05903 6.92137 8.2964 6.98887C8.38265 7.01287 8.4539 7.09725 8.50715 7.23937C8.66728 7.668 8.57315 8.38912 8.3834 8.679C8.18765 8.9775 8.09728 9.552 7.99265 10.2165C7.94503 10.5195 7.87565 10.9605 7.79765 11.2601C7.75758 11.1275 7.72069 10.994 7.68703 10.8596C7.53178 10.2596 7.3559 9.58087 6.78328 9.58087H6.7634L6.73828 9.58162C6.15365 9.5685 5.9669 10.251 5.80903 10.8596C5.77978 10.9736 5.7404 11.1259 5.6984 11.2597C5.62078 10.9597 5.55178 10.5199 5.50415 10.2172C5.39915 9.552 5.30915 8.9775 5.11303 8.67862C4.92328 8.38912 4.82878 7.668 4.98928 7.23937ZM17.1858 3.51862H13.9244C13.8546 3.23867 13.6998 2.98723 13.4812 2.79892C13.2626 2.61061 12.991 2.49469 12.7038 2.46712C12.3318 1.44862 11.3688 0.755249 10.2588 0.755249C9.14878 0.755249 8.18615 1.449 7.81415 2.46712C7.52695 2.49469 7.25535 2.61061 7.03676 2.79892C6.81816 2.98723 6.66331 3.23867 6.59353 3.51862H3.33215C2.29828 3.51862 1.45715 4.35975 1.45715 5.39362V21.3697C1.45715 22.4036 2.29828 23.2447 3.33215 23.2447H17.1858C18.2197 23.2447 19.0608 22.4036 19.0608 21.3697V5.39362C19.0608 4.35975 18.2197 3.51862 17.1858 3.51862ZM10.2592 1.50487C10.9469 1.50487 11.5548 1.87987 11.8773 2.45362H8.64103C8.80186 2.16576 9.03664 1.92605 9.3211 1.75926C9.60557 1.59247 9.9294 1.50465 10.2592 1.50487ZM7.29853 3.85312C7.29853 3.495 7.5899 3.20362 7.9484 3.20362H12.5699C12.928 3.20362 13.2194 3.495 13.2194 3.85312V3.93637C13.2194 4.2945 12.928 4.58587 12.5699 4.58587H7.9484C7.77617 4.58568 7.61104 4.51719 7.48922 4.39544C7.3674 4.27369 7.29883 4.10861 7.29853 3.93637V3.85312ZM18.3112 21.3697C18.3112 21.9904 17.8068 22.4947 17.1862 22.4947H3.33215C2.7119 22.4947 2.20715 21.9904 2.20715 21.3697V5.39362C2.20715 4.77337 2.7119 4.26862 3.33215 4.26862H6.59278C6.74278 4.87987 7.29178 5.33587 7.9484 5.33587H12.5699C13.2262 5.33587 13.7752 4.8795 13.9252 4.26862H17.1858C17.8064 4.26862 18.3108 4.77337 18.3108 5.39362L18.3112 21.3697ZM16.1849 7.68112C16.1849 7.78058 16.1454 7.87596 16.0751 7.94629C16.0047 8.01662 15.9094 8.05612 15.8099 8.05612H10.8277C10.7282 8.05612 10.6328 8.01662 10.5625 7.94629C10.4922 7.87596 10.4527 7.78058 10.4527 7.68112C10.4527 7.58167 10.4922 7.48629 10.5625 7.41596C10.6328 7.34563 10.7282 7.30612 10.8277 7.30612H15.8099C15.9094 7.30612 16.0047 7.34563 16.0751 7.41596C16.1454 7.48629 16.1849 7.58167 16.1849 7.68112ZM16.1849 10.8289C16.1849 10.9283 16.1454 11.0237 16.0751 11.094C16.0047 11.1644 15.9094 11.2039 15.8099 11.2039H10.8277C10.7282 11.2039 10.6328 11.1644 10.5625 11.094C10.4922 11.0237 10.4527 10.9283 10.4527 10.8289C10.4527 10.7294 10.4922 10.634 10.5625 10.5637C10.6328 10.4934 10.7282 10.4539 10.8277 10.4539H15.8099C15.9094 10.4539 16.0047 10.4934 16.0751 10.5637C16.1454 10.634 16.1849 10.7294 16.1849 10.8289ZM16.1849 13.9762C16.1849 14.0757 16.1454 14.1711 16.0751 14.2414C16.0047 14.3117 15.9094 14.3512 15.8099 14.3512H4.38365C4.2842 14.3512 4.18881 14.3117 4.11849 14.2414C4.04816 14.1711 4.00865 14.0757 4.00865 13.9762C4.00865 13.8768 4.04816 13.7814 4.11849 13.7111C4.18881 13.6408 4.2842 13.6012 4.38365 13.6012H15.8099C15.9094 13.6012 16.0047 13.6408 16.0751 13.7111C16.1454 13.7814 16.1849 13.8768 16.1849 13.9762ZM16.1849 17.1236C16.1849 17.2231 16.1454 17.3185 16.0751 17.3888C16.0047 17.4591 15.9094 17.4986 15.8099 17.4986H4.38365C4.2842 17.4986 4.18881 17.4591 4.11849 17.3888C4.04816 17.3185 4.00865 17.2231 4.00865 17.1236C4.00865 17.0242 4.04816 16.9288 4.11849 16.8585C4.18881 16.7881 4.2842 16.7486 4.38365 16.7486H15.8099C15.9094 16.7486 16.0047 16.7881 16.0751 16.8585C16.1454 16.9288 16.1849 17.0242 16.1849 17.1236ZM16.1849 20.271C16.1849 20.3705 16.1454 20.4658 16.0751 20.5362C16.0047 20.6065 15.9094 20.646 15.8099 20.646H4.38365C4.2842 20.646 4.18881 20.6065 4.11849 20.5362C4.04816 20.4658 4.00865 20.3705 4.00865 20.271C4.00865 20.1715 4.04816 20.0762 4.11849 20.0058C4.18881 19.9355 4.2842 19.896 4.38365 19.896H15.8099C15.9094 19.896 16.0047 19.9355 16.0751 20.0058C16.1454 20.0762 16.1849 20.1715 16.1849 20.271ZM22.018 4.99725H21.0685C20.4483 4.99725 19.9435 5.50162 19.9435 6.12225V8.30062C19.9435 8.58937 20.056 8.84962 20.2349 9.04912V17.8072C20.2349 17.8222 20.2413 17.8346 20.2432 17.8489C20.2405 17.8789 20.2345 17.9074 20.2394 17.9381L20.5942 20.1559C20.6186 20.3224 20.6865 20.4795 20.7909 20.6116C20.8953 20.7436 21.0325 20.8459 21.1889 20.9081V22.2326C21.1889 22.3321 21.2284 22.4275 21.2987 22.4978C21.3691 22.5681 21.4644 22.6076 21.5639 22.6076C21.6634 22.6076 21.7587 22.5681 21.8291 22.4978C21.8994 22.4275 21.9389 22.3321 21.9389 22.2326V20.9051C22.0939 20.8421 22.2297 20.7396 22.3329 20.6078C22.436 20.4761 22.5029 20.3196 22.5269 20.154L22.8884 17.8661C22.8903 17.856 22.8865 17.847 22.8873 17.8369C22.888 17.8267 22.8933 17.8181 22.8933 17.8072V9.05062C22.8933 9.03562 22.8865 9.02325 22.885 9.00862C23.0507 8.80977 23.1419 8.55943 23.143 8.30062V6.12187C23.143 5.50162 22.6383 4.99687 22.018 4.99687V4.99725ZM21.7855 20.0374C21.7589 20.2106 21.6194 20.2297 21.5605 20.2297C21.5017 20.2297 21.3625 20.211 21.3348 20.0374L21.0378 18.1822H22.0795L21.7859 20.0374H21.7855ZM22.1433 9.42562V17.4322H20.9845V9.42562H22.1433ZM20.6935 6.12187C20.6935 6.02242 20.733 5.92704 20.8034 5.85671C20.8737 5.78638 20.9691 5.74687 21.0685 5.74687H22.018C22.1175 5.74687 22.2129 5.78638 22.2832 5.85671C22.3535 5.92704 22.393 6.02242 22.393 6.12187V8.30062C22.393 8.40008 22.3535 8.49546 22.2832 8.56579C22.2129 8.63612 22.1175 8.67562 22.018 8.67562H21.0685C20.9691 8.67562 20.8737 8.63612 20.8034 8.56579C20.733 8.49546 20.6935 8.40008 20.6935 8.30062V6.12187Z"/>
</mask>
<path d="M4.76315 10.3335C4.93265 11.4109 5.0669 12.2651 5.6744 12.2651C5.68265 12.2651 5.69053 12.2651 5.6984 12.2644C6.22565 12.2449 6.38315 11.6359 6.5354 11.0475C6.5879 10.8435 6.6704 10.5262 6.74803 10.3759C6.82565 10.5259 6.90815 10.8435 6.96103 11.0475C7.11328 11.6362 7.27078 12.2449 7.79803 12.2644L7.8224 12.2651C8.42953 12.2651 8.56378 11.4109 8.73365 10.3331C8.8049 9.8775 8.90315 9.25387 9.01115 9.08962C9.3149 8.62537 9.46715 7.66537 9.20953 6.9765C9.03328 6.5055 8.72653 6.33037 8.50003 6.267C8.0429 6.13687 7.56065 6.23362 7.1399 6.537C7.02661 6.62126 6.88916 6.66673 6.74797 6.66666C6.60677 6.66659 6.46937 6.62099 6.35615 6.53662C5.93615 6.23362 5.4524 6.13762 4.99603 6.26662C4.7699 6.33037 4.46315 6.5055 4.2869 6.9765C4.0289 7.66575 4.1819 8.62575 4.48565 9.08962C4.59328 9.25387 4.69153 9.87787 4.76315 10.3335ZM4.98928 7.23937C5.04215 7.09687 5.11303 7.01287 5.19965 6.98812C5.43965 6.92212 5.6804 6.97425 5.91778 7.14525C6.15947 7.32003 6.45014 7.41411 6.7484 7.41411C7.04667 7.41411 7.33733 7.32003 7.57903 7.14525C7.8164 6.97387 8.05903 6.92137 8.2964 6.98887C8.38265 7.01287 8.4539 7.09725 8.50715 7.23937C8.66728 7.668 8.57315 8.38912 8.3834 8.679C8.18765 8.9775 8.09728 9.552 7.99265 10.2165C7.94503 10.5195 7.87565 10.9605 7.79765 11.2601C7.75758 11.1275 7.72069 10.994 7.68703 10.8596C7.53178 10.2596 7.3559 9.58087 6.78328 9.58087H6.7634L6.73828 9.58162C6.15365 9.5685 5.9669 10.251 5.80903 10.8596C5.77978 10.9736 5.7404 11.1259 5.6984 11.2597C5.62078 10.9597 5.55178 10.5199 5.50415 10.2172C5.39915 9.552 5.30915 8.9775 5.11303 8.67862C4.92328 8.38912 4.82878 7.668 4.98928 7.23937ZM17.1858 3.51862H13.9244C13.8546 3.23867 13.6998 2.98723 13.4812 2.79892C13.2626 2.61061 12.991 2.49469 12.7038 2.46712C12.3318 1.44862 11.3688 0.755249 10.2588 0.755249C9.14878 0.755249 8.18615 1.449 7.81415 2.46712C7.52695 2.49469 7.25535 2.61061 7.03676 2.79892C6.81816 2.98723 6.66331 3.23867 6.59353 3.51862H3.33215C2.29828 3.51862 1.45715 4.35975 1.45715 5.39362V21.3697C1.45715 22.4036 2.29828 23.2447 3.33215 23.2447H17.1858C18.2197 23.2447 19.0608 22.4036 19.0608 21.3697V5.39362C19.0608 4.35975 18.2197 3.51862 17.1858 3.51862ZM10.2592 1.50487C10.9469 1.50487 11.5548 1.87987 11.8773 2.45362H8.64103C8.80186 2.16576 9.03664 1.92605 9.3211 1.75926C9.60557 1.59247 9.9294 1.50465 10.2592 1.50487ZM7.29853 3.85312C7.29853 3.495 7.5899 3.20362 7.9484 3.20362H12.5699C12.928 3.20362 13.2194 3.495 13.2194 3.85312V3.93637C13.2194 4.2945 12.928 4.58587 12.5699 4.58587H7.9484C7.77617 4.58568 7.61104 4.51719 7.48922 4.39544C7.3674 4.27369 7.29883 4.10861 7.29853 3.93637V3.85312ZM18.3112 21.3697C18.3112 21.9904 17.8068 22.4947 17.1862 22.4947H3.33215C2.7119 22.4947 2.20715 21.9904 2.20715 21.3697V5.39362C2.20715 4.77337 2.7119 4.26862 3.33215 4.26862H6.59278C6.74278 4.87987 7.29178 5.33587 7.9484 5.33587H12.5699C13.2262 5.33587 13.7752 4.8795 13.9252 4.26862H17.1858C17.8064 4.26862 18.3108 4.77337 18.3108 5.39362L18.3112 21.3697ZM16.1849 7.68112C16.1849 7.78058 16.1454 7.87596 16.0751 7.94629C16.0047 8.01662 15.9094 8.05612 15.8099 8.05612H10.8277C10.7282 8.05612 10.6328 8.01662 10.5625 7.94629C10.4922 7.87596 10.4527 7.78058 10.4527 7.68112C10.4527 7.58167 10.4922 7.48629 10.5625 7.41596C10.6328 7.34563 10.7282 7.30612 10.8277 7.30612H15.8099C15.9094 7.30612 16.0047 7.34563 16.0751 7.41596C16.1454 7.48629 16.1849 7.58167 16.1849 7.68112ZM16.1849 10.8289C16.1849 10.9283 16.1454 11.0237 16.0751 11.094C16.0047 11.1644 15.9094 11.2039 15.8099 11.2039H10.8277C10.7282 11.2039 10.6328 11.1644 10.5625 11.094C10.4922 11.0237 10.4527 10.9283 10.4527 10.8289C10.4527 10.7294 10.4922 10.634 10.5625 10.5637C10.6328 10.4934 10.7282 10.4539 10.8277 10.4539H15.8099C15.9094 10.4539 16.0047 10.4934 16.0751 10.5637C16.1454 10.634 16.1849 10.7294 16.1849 10.8289ZM16.1849 13.9762C16.1849 14.0757 16.1454 14.1711 16.0751 14.2414C16.0047 14.3117 15.9094 14.3512 15.8099 14.3512H4.38365C4.2842 14.3512 4.18881 14.3117 4.11849 14.2414C4.04816 14.1711 4.00865 14.0757 4.00865 13.9762C4.00865 13.8768 4.04816 13.7814 4.11849 13.7111C4.18881 13.6408 4.2842 13.6012 4.38365 13.6012H15.8099C15.9094 13.6012 16.0047 13.6408 16.0751 13.7111C16.1454 13.7814 16.1849 13.8768 16.1849 13.9762ZM16.1849 17.1236C16.1849 17.2231 16.1454 17.3185 16.0751 17.3888C16.0047 17.4591 15.9094 17.4986 15.8099 17.4986H4.38365C4.2842 17.4986 4.18881 17.4591 4.11849 17.3888C4.04816 17.3185 4.00865 17.2231 4.00865 17.1236C4.00865 17.0242 4.04816 16.9288 4.11849 16.8585C4.18881 16.7881 4.2842 16.7486 4.38365 16.7486H15.8099C15.9094 16.7486 16.0047 16.7881 16.0751 16.8585C16.1454 16.9288 16.1849 17.0242 16.1849 17.1236ZM16.1849 20.271C16.1849 20.3705 16.1454 20.4658 16.0751 20.5362C16.0047 20.6065 15.9094 20.646 15.8099 20.646H4.38365C4.2842 20.646 4.18881 20.6065 4.11849 20.5362C4.04816 20.4658 4.00865 20.3705 4.00865 20.271C4.00865 20.1715 4.04816 20.0762 4.11849 20.0058C4.18881 19.9355 4.2842 19.896 4.38365 19.896H15.8099C15.9094 19.896 16.0047 19.9355 16.0751 20.0058C16.1454 20.0762 16.1849 20.1715 16.1849 20.271ZM22.018 4.99725H21.0685C20.4483 4.99725 19.9435 5.50162 19.9435 6.12225V8.30062C19.9435 8.58937 20.056 8.84962 20.2349 9.04912V17.8072C20.2349 17.8222 20.2413 17.8346 20.2432 17.8489C20.2405 17.8789 20.2345 17.9074 20.2394 17.9381L20.5942 20.1559C20.6186 20.3224 20.6865 20.4795 20.7909 20.6116C20.8953 20.7436 21.0325 20.8459 21.1889 20.9081V22.2326C21.1889 22.3321 21.2284 22.4275 21.2987 22.4978C21.3691 22.5681 21.4644 22.6076 21.5639 22.6076C21.6634 22.6076 21.7587 22.5681 21.8291 22.4978C21.8994 22.4275 21.9389 22.3321 21.9389 22.2326V20.9051C22.0939 20.8421 22.2297 20.7396 22.3329 20.6078C22.436 20.4761 22.5029 20.3196 22.5269 20.154L22.8884 17.8661C22.8903 17.856 22.8865 17.847 22.8873 17.8369C22.888 17.8267 22.8933 17.8181 22.8933 17.8072V9.05062C22.8933 9.03562 22.8865 9.02325 22.885 9.00862C23.0507 8.80977 23.1419 8.55943 23.143 8.30062V6.12187C23.143 5.50162 22.6383 4.99687 22.018 4.99687V4.99725ZM21.7855 20.0374C21.7589 20.2106 21.6194 20.2297 21.5605 20.2297C21.5017 20.2297 21.3625 20.211 21.3348 20.0374L21.0378 18.1822H22.0795L21.7859 20.0374H21.7855ZM22.1433 9.42562V17.4322H20.9845V9.42562H22.1433ZM20.6935 6.12187C20.6935 6.02242 20.733 5.92704 20.8034 5.85671C20.8737 5.78638 20.9691 5.74687 21.0685 5.74687H22.018C22.1175 5.74687 22.2129 5.78638 22.2832 5.85671C22.3535 5.92704 22.393 6.02242 22.393 6.12187V8.30062C22.393 8.40008 22.3535 8.49546 22.2832 8.56579C22.2129 8.63612 22.1175 8.67562 22.018 8.67562H21.0685C20.9691 8.67562 20.8737 8.63612 20.8034 8.56579C20.733 8.49546 20.6935 8.40008 20.6935 8.30062V6.12187Z" fill="#3D3E56"/>
<path d="M4.76315 10.3335C4.93265 11.4109 5.0669 12.2651 5.6744 12.2651C5.68265 12.2651 5.69053 12.2651 5.6984 12.2644C6.22565 12.2449 6.38315 11.6359 6.5354 11.0475C6.5879 10.8435 6.6704 10.5262 6.74803 10.3759C6.82565 10.5259 6.90815 10.8435 6.96103 11.0475C7.11328 11.6362 7.27078 12.2449 7.79803 12.2644L7.8224 12.2651C8.42953 12.2651 8.56378 11.4109 8.73365 10.3331C8.8049 9.8775 8.90315 9.25387 9.01115 9.08962C9.3149 8.62537 9.46715 7.66537 9.20953 6.9765C9.03328 6.5055 8.72653 6.33037 8.50003 6.267C8.0429 6.13687 7.56065 6.23362 7.1399 6.537C7.02661 6.62126 6.88916 6.66673 6.74797 6.66666C6.60677 6.66659 6.46937 6.62099 6.35615 6.53662C5.93615 6.23362 5.4524 6.13762 4.99603 6.26662C4.7699 6.33037 4.46315 6.5055 4.2869 6.9765C4.0289 7.66575 4.1819 8.62575 4.48565 9.08962C4.59328 9.25387 4.69153 9.87787 4.76315 10.3335ZM4.98928 7.23937C5.04215 7.09687 5.11303 7.01287 5.19965 6.98812C5.43965 6.92212 5.6804 6.97425 5.91778 7.14525C6.15947 7.32003 6.45014 7.41411 6.7484 7.41411C7.04667 7.41411 7.33733 7.32003 7.57903 7.14525C7.8164 6.97387 8.05903 6.92137 8.2964 6.98887C8.38265 7.01287 8.4539 7.09725 8.50715 7.23937C8.66728 7.668 8.57315 8.38912 8.3834 8.679C8.18765 8.9775 8.09728 9.552 7.99265 10.2165C7.94503 10.5195 7.87565 10.9605 7.79765 11.2601C7.75758 11.1275 7.72069 10.994 7.68703 10.8596C7.53178 10.2596 7.3559 9.58087 6.78328 9.58087H6.7634L6.73828 9.58162C6.15365 9.5685 5.9669 10.251 5.80903 10.8596C5.77978 10.9736 5.7404 11.1259 5.6984 11.2597C5.62078 10.9597 5.55178 10.5199 5.50415 10.2172C5.39915 9.552 5.30915 8.9775 5.11303 8.67862C4.92328 8.38912 4.82878 7.668 4.98928 7.23937ZM17.1858 3.51862H13.9244C13.8546 3.23867 13.6998 2.98723 13.4812 2.79892C13.2626 2.61061 12.991 2.49469 12.7038 2.46712C12.3318 1.44862 11.3688 0.755249 10.2588 0.755249C9.14878 0.755249 8.18615 1.449 7.81415 2.46712C7.52695 2.49469 7.25535 2.61061 7.03676 2.79892C6.81816 2.98723 6.66331 3.23867 6.59353 3.51862H3.33215C2.29828 3.51862 1.45715 4.35975 1.45715 5.39362V21.3697C1.45715 22.4036 2.29828 23.2447 3.33215 23.2447H17.1858C18.2197 23.2447 19.0608 22.4036 19.0608 21.3697V5.39362C19.0608 4.35975 18.2197 3.51862 17.1858 3.51862ZM10.2592 1.50487C10.9469 1.50487 11.5548 1.87987 11.8773 2.45362H8.64103C8.80186 2.16576 9.03664 1.92605 9.3211 1.75926C9.60557 1.59247 9.9294 1.50465 10.2592 1.50487ZM7.29853 3.85312C7.29853 3.495 7.5899 3.20362 7.9484 3.20362H12.5699C12.928 3.20362 13.2194 3.495 13.2194 3.85312V3.93637C13.2194 4.2945 12.928 4.58587 12.5699 4.58587H7.9484C7.77617 4.58568 7.61104 4.51719 7.48922 4.39544C7.3674 4.27369 7.29883 4.10861 7.29853 3.93637V3.85312ZM18.3112 21.3697C18.3112 21.9904 17.8068 22.4947 17.1862 22.4947H3.33215C2.7119 22.4947 2.20715 21.9904 2.20715 21.3697V5.39362C2.20715 4.77337 2.7119 4.26862 3.33215 4.26862H6.59278C6.74278 4.87987 7.29178 5.33587 7.9484 5.33587H12.5699C13.2262 5.33587 13.7752 4.8795 13.9252 4.26862H17.1858C17.8064 4.26862 18.3108 4.77337 18.3108 5.39362L18.3112 21.3697ZM16.1849 7.68112C16.1849 7.78058 16.1454 7.87596 16.0751 7.94629C16.0047 8.01662 15.9094 8.05612 15.8099 8.05612H10.8277C10.7282 8.05612 10.6328 8.01662 10.5625 7.94629C10.4922 7.87596 10.4527 7.78058 10.4527 7.68112C10.4527 7.58167 10.4922 7.48629 10.5625 7.41596C10.6328 7.34563 10.7282 7.30612 10.8277 7.30612H15.8099C15.9094 7.30612 16.0047 7.34563 16.0751 7.41596C16.1454 7.48629 16.1849 7.58167 16.1849 7.68112ZM16.1849 10.8289C16.1849 10.9283 16.1454 11.0237 16.0751 11.094C16.0047 11.1644 15.9094 11.2039 15.8099 11.2039H10.8277C10.7282 11.2039 10.6328 11.1644 10.5625 11.094C10.4922 11.0237 10.4527 10.9283 10.4527 10.8289C10.4527 10.7294 10.4922 10.634 10.5625 10.5637C10.6328 10.4934 10.7282 10.4539 10.8277 10.4539H15.8099C15.9094 10.4539 16.0047 10.4934 16.0751 10.5637C16.1454 10.634 16.1849 10.7294 16.1849 10.8289ZM16.1849 13.9762C16.1849 14.0757 16.1454 14.1711 16.0751 14.2414C16.0047 14.3117 15.9094 14.3512 15.8099 14.3512H4.38365C4.2842 14.3512 4.18881 14.3117 4.11849 14.2414C4.04816 14.1711 4.00865 14.0757 4.00865 13.9762C4.00865 13.8768 4.04816 13.7814 4.11849 13.7111C4.18881 13.6408 4.2842 13.6012 4.38365 13.6012H15.8099C15.9094 13.6012 16.0047 13.6408 16.0751 13.7111C16.1454 13.7814 16.1849 13.8768 16.1849 13.9762ZM16.1849 17.1236C16.1849 17.2231 16.1454 17.3185 16.0751 17.3888C16.0047 17.4591 15.9094 17.4986 15.8099 17.4986H4.38365C4.2842 17.4986 4.18881 17.4591 4.11849 17.3888C4.04816 17.3185 4.00865 17.2231 4.00865 17.1236C4.00865 17.0242 4.04816 16.9288 4.11849 16.8585C4.18881 16.7881 4.2842 16.7486 4.38365 16.7486H15.8099C15.9094 16.7486 16.0047 16.7881 16.0751 16.8585C16.1454 16.9288 16.1849 17.0242 16.1849 17.1236ZM16.1849 20.271C16.1849 20.3705 16.1454 20.4658 16.0751 20.5362C16.0047 20.6065 15.9094 20.646 15.8099 20.646H4.38365C4.2842 20.646 4.18881 20.6065 4.11849 20.5362C4.04816 20.4658 4.00865 20.3705 4.00865 20.271C4.00865 20.1715 4.04816 20.0762 4.11849 20.0058C4.18881 19.9355 4.2842 19.896 4.38365 19.896H15.8099C15.9094 19.896 16.0047 19.9355 16.0751 20.0058C16.1454 20.0762 16.1849 20.1715 16.1849 20.271ZM22.018 4.99725H21.0685C20.4483 4.99725 19.9435 5.50162 19.9435 6.12225V8.30062C19.9435 8.58937 20.056 8.84962 20.2349 9.04912V17.8072C20.2349 17.8222 20.2413 17.8346 20.2432 17.8489C20.2405 17.8789 20.2345 17.9074 20.2394 17.9381L20.5942 20.1559C20.6186 20.3224 20.6865 20.4795 20.7909 20.6116C20.8953 20.7436 21.0325 20.8459 21.1889 20.9081V22.2326C21.1889 22.3321 21.2284 22.4275 21.2987 22.4978C21.3691 22.5681 21.4644 22.6076 21.5639 22.6076C21.6634 22.6076 21.7587 22.5681 21.8291 22.4978C21.8994 22.4275 21.9389 22.3321 21.9389 22.2326V20.9051C22.0939 20.8421 22.2297 20.7396 22.3329 20.6078C22.436 20.4761 22.5029 20.3196 22.5269 20.154L22.8884 17.8661C22.8903 17.856 22.8865 17.847 22.8873 17.8369C22.888 17.8267 22.8933 17.8181 22.8933 17.8072V9.05062C22.8933 9.03562 22.8865 9.02325 22.885 9.00862C23.0507 8.80977 23.1419 8.55943 23.143 8.30062V6.12187C23.143 5.50162 22.6383 4.99687 22.018 4.99687V4.99725ZM21.7855 20.0374C21.7589 20.2106 21.6194 20.2297 21.5605 20.2297C21.5017 20.2297 21.3625 20.211 21.3348 20.0374L21.0378 18.1822H22.0795L21.7859 20.0374H21.7855ZM22.1433 9.42562V17.4322H20.9845V9.42562H22.1433ZM20.6935 6.12187C20.6935 6.02242 20.733 5.92704 20.8034 5.85671C20.8737 5.78638 20.9691 5.74687 21.0685 5.74687H22.018C22.1175 5.74687 22.2129 5.78638 22.2832 5.85671C22.3535 5.92704 22.393 6.02242 22.393 6.12187V8.30062C22.393 8.40008 22.3535 8.49546 22.2832 8.56579C22.2129 8.63612 22.1175 8.67562 22.018 8.67562H21.0685C20.9691 8.67562 20.8737 8.63612 20.8034 8.56579C20.733 8.49546 20.6935 8.40008 20.6935 8.30062V6.12187Z" stroke="#3D3E56" stroke-width="0.2" mask="url(#path-1-outside-1_557_11000)"/>
</svg>
