<svg width="16" height="16" viewBox="0 0 16 16" fill="none" xmlns="http://www.w3.org/2000/svg">
<path d="M7.58915 11.7845C7.63502 11.8511 7.6964 11.9056 7.768 11.9432C7.8396 11.9809 7.91927 12.0005 8.00015 12.0005C8.08104 12.0005 8.16071 11.9809 8.23231 11.9432C8.30391 11.9056 8.36528 11.8511 8.41115 11.7845L12.9112 5.2845C12.9632 5.20953 12.9938 5.12172 12.9995 5.0306C13.0052 4.93949 12.9858 4.84856 12.9434 4.7677C12.901 4.68683 12.8373 4.61912 12.7592 4.57193C12.681 4.52473 12.5914 4.49986 12.5002 4.5H3.50015C3.40907 4.50038 3.31982 4.52557 3.24199 4.57288C3.16416 4.62019 3.1007 4.68782 3.05844 4.7685C3.01617 4.84917 2.99669 4.93985 3.00211 5.03077C3.00752 5.12168 3.03761 5.20941 3.08915 5.2845L7.58915 11.7845Z" fill="#4B3A5A"/>
</svg>
