<svg aria-hidden="true" xmlns="http://www.w3.org/2000/svg" xmlns:xlink="http://www.w3.org/1999/xlink"><symbol viewBox="0 0 16 16" fill="none" id="icon-arrow" xmlns="http://www.w3.org/2000/svg">
<path d="M3.33325 12.6666L11.9999 3.99996" stroke="currentColor" stroke-width="2" stroke-linecap="round" stroke-linejoin="round"/>
<path d="M4 4L12 4L12 12" stroke="currentColor" stroke-width="2" stroke-linecap="round" stroke-linejoin="round"/>
</symbol><symbol viewBox="0 0 24 24" fill="none" id="icon-arrow-2" xmlns="http://www.w3.org/2000/svg">
<path d="M21 12H3M3 12L8 17M3 12L8 7" stroke="currentColor" stroke-width="2" stroke-linecap="round" stroke-linejoin="round"/>
</symbol><symbol viewBox="0 0 8 14" fill="none" id="icon-arrow-clean" xmlns="http://www.w3.org/2000/svg">
<path d="M1.09473 12.7145L6.80901 7.00017L1.09473 1.28589" stroke="currentColor" stroke-width="2" stroke-linecap="round" stroke-linejoin="round"/>
</symbol><symbol viewBox="0 0 16 16" fill="none" id="icon-arrow-fill" xmlns="http://www.w3.org/2000/svg">
<path d="M7.58915 11.7845C7.63502 11.8511 7.6964 11.9056 7.768 11.9432C7.8396 11.9809 7.91927 12.0005 8.00015 12.0005C8.08104 12.0005 8.16071 11.9809 8.23231 11.9432C8.30391 11.9056 8.36528 11.8511 8.41115 11.7845L12.9112 5.2845C12.9632 5.20953 12.9938 5.12172 12.9995 5.0306C13.0052 4.93949 12.9858 4.84856 12.9434 4.7677C12.901 4.68683 12.8373 4.61912 12.7592 4.57193C12.681 4.52473 12.5914 4.49986 12.5002 4.5H3.50015C3.40907 4.50038 3.31982 4.52557 3.24199 4.57288C3.16416 4.62019 3.1007 4.68782 3.05844 4.7685C3.01617 4.84917 2.99669 4.93985 3.00211 5.03077C3.00752 5.12168 3.03761 5.20941 3.08915 5.2845L7.58915 11.7845Z" fill="currentColor"/>
</symbol><symbol viewBox="0 0 16 16" fill="none" id="icon-clock" xmlns="http://www.w3.org/2000/svg">
<path fill-rule="evenodd" clip-rule="evenodd" d="M0.916992 7.99996C0.916992 4.08794 4.08831 0.916626 8.00033 0.916626C11.9123 0.916626 15.0837 4.08794 15.0837 7.99996C15.0837 11.912 11.9123 15.0833 8.00033 15.0833C4.08831 15.0833 0.916992 11.912 0.916992 7.99996ZM8.62533 3.83329C8.62533 3.48811 8.3455 3.20829 8.00033 3.20829C7.65515 3.20829 7.37533 3.48811 7.37533 3.83329V7.99996C7.37533 8.21545 7.48634 8.41575 7.66908 8.52996L10.1691 10.0925C10.4618 10.2754 10.8474 10.1864 11.0303 9.89371C11.2133 9.601 11.1243 9.2154 10.8316 9.03246L8.62533 7.65355V3.83329Z" fill="currentColor"/>
</symbol><symbol viewBox="0 0 16 16" fill="none" id="icon-headphones" xmlns="http://www.w3.org/2000/svg">
<path d="M16 6C16.0012 5.63294 15.9014 5.27263 15.7114 4.95853C15.5215 4.64443 15.2488 4.38866 14.9232 4.21924C14.5975 4.04981 14.2316 3.97327 13.8653 3.99798C13.4991 4.0227 13.1467 4.14773 12.8468 4.35937C12.5469 4.57102 12.3111 4.86111 12.165 5.19788C12.019 5.53466 11.9685 5.90512 12.019 6.26869C12.0696 6.63225 12.2192 6.97491 12.4514 7.25912C12.6837 7.54333 12.9898 7.75813 13.336 7.88V10.664C13.336 11.7249 12.9146 12.7423 12.1644 13.4924C11.4143 14.2426 10.3969 14.664 9.336 14.664C8.27513 14.664 7.25772 14.2426 6.50757 13.4924C5.75743 12.7423 5.336 11.7249 5.336 10.664V10.616C6.44572 10.4547 7.46041 9.89965 8.19479 9.05218C8.92916 8.20472 9.33422 7.12138 9.336 6V3.336C9.336 2.89791 9.24971 2.46411 9.08206 2.05937C8.91441 1.65463 8.66868 1.28687 8.35891 0.977092C8.04913 0.667316 7.68137 0.421588 7.27663 0.253938C6.87189 0.0862882 6.43809 0 6 0C5.82284 2.63996e-09 5.65293 0.0703784 5.52765 0.195653C5.40238 0.320927 5.332 0.490835 5.332 0.668C5.332 0.845165 5.40238 1.01507 5.52765 1.14035C5.65293 1.26562 5.82284 1.336 6 1.336C6.53043 1.336 7.03914 1.54671 7.41421 1.92179C7.78929 2.29686 8 2.80557 8 3.336V6C7.95807 6.85546 7.58872 7.66202 6.96844 8.25264C6.34817 8.84326 5.52449 9.17268 4.668 9.17268C3.81151 9.17268 2.98783 8.84326 2.36756 8.25264C1.74728 7.66202 1.37793 6.85546 1.336 6V3.336C1.336 2.80557 1.54671 2.29686 1.92179 1.92179C2.29686 1.54671 2.80557 1.336 3.336 1.336C3.51316 1.336 3.68307 1.26562 3.80835 1.14035C3.93362 1.01507 4.004 0.845165 4.004 0.668C4.004 0.490835 3.93362 0.320927 3.80835 0.195653C3.68307 0.0703784 3.51316 2.63996e-09 3.336 0C2.45124 0 1.60271 0.35147 0.977092 0.977092C0.35147 1.60271 0 2.45124 0 3.336L0 6C0.00178085 7.12138 0.40684 8.20472 1.14121 9.05218C1.87559 9.89965 2.89028 10.4547 4 10.616V10.664C4.0534 12.0424 4.63853 13.3466 5.63263 14.3029C6.62674 15.2592 7.95257 15.7934 9.332 15.7934C10.7114 15.7934 12.0373 15.2592 13.0314 14.3029C14.0255 13.3466 14.6106 12.0424 14.664 10.664V7.88C15.0535 7.7429 15.3911 7.48859 15.6303 7.15197C15.8695 6.81536 15.9986 6.41295 16 6ZM14 6.664C13.8239 6.664 13.655 6.59404 13.5305 6.46952C13.406 6.345 13.336 6.1761 13.336 6C13.336 5.8239 13.406 5.655 13.5305 5.53048C13.655 5.40596 13.8239 5.336 14 5.336C14.1761 5.336 14.345 5.40596 14.4695 5.53048C14.594 5.655 14.664 5.8239 14.664 6C14.664 6.1761 14.594 6.345 14.4695 6.46952C14.345 6.59404 14.1761 6.664 14 6.664Z" fill="currentColor"/>
</symbol><symbol viewBox="0 0 18 18" fill="none" id="icon-location" xmlns="http://www.w3.org/2000/svg">
<path d="M6.5625 7.5C6.5625 6.15381 7.65381 5.0625 9 5.0625C10.3462 5.0625 11.4375 6.15381 11.4375 7.5C11.4375 8.84619 10.3462 9.9375 9 9.9375C7.65381 9.9375 6.5625 8.84619 6.5625 7.5Z" fill="currentColor"/>
<path fill-rule="evenodd" clip-rule="evenodd" d="M2.83016 6.65804C3.08789 3.53134 5.70073 1.125 8.83804 1.125H9.162C12.2993 1.125 14.9122 3.53134 15.1699 6.65804C15.3086 8.34149 14.7886 10.0131 13.7194 11.3207L10.1246 15.7171C9.54337 16.4279 8.45667 16.4279 7.87544 15.7171L4.28064 11.3207C3.2114 10.0131 2.69139 8.34149 2.83016 6.65804ZM9 3.9375C7.03249 3.9375 5.4375 5.53249 5.4375 7.5C5.4375 9.46751 7.03249 11.0625 9 11.0625C10.9675 11.0625 12.5625 9.46751 12.5625 7.5C12.5625 5.53249 10.9675 3.9375 9 3.9375Z" fill="currentColor"/>
</symbol><symbol viewBox="0 0 20 20" fill="none" id="icon-mail" xmlns="http://www.w3.org/2000/svg">
<path d="M6.07408 4.08974C8.68629 3.86267 11.3133 3.86267 13.9255 4.08974L15.184 4.19914C16.0218 4.27197 16.7393 4.77169 17.1111 5.48651C17.1587 5.57795 17.1231 5.68867 17.0354 5.74293L11.8138 8.97537C10.6939 9.66863 9.2818 9.68318 8.14786 9.01313L2.89134 5.907C2.80642 5.85682 2.76744 5.75352 2.80571 5.6626C3.14584 4.85463 3.91053 4.27781 4.81556 4.19914L6.07408 4.08974Z" fill="currentColor"/>
<path d="M2.80143 7.30579C2.67146 7.22899 2.50563 7.31164 2.49048 7.46184C2.27903 9.55821 2.3302 11.6744 2.644 13.7612C2.80943 14.8613 3.70727 15.7046 4.81556 15.801L6.07409 15.9104C8.68628 16.1374 11.3133 16.1374 13.9255 15.9104L15.184 15.801C16.2923 15.7046 17.1901 14.8613 17.3555 13.7612C17.6785 11.6136 17.7233 9.43484 17.4899 7.27862C17.4735 7.12736 17.3049 7.04624 17.1755 7.12632L12.4717 10.0382C10.9566 10.9761 9.0461 10.9958 7.51195 10.0893L2.80143 7.30579Z" fill="currentColor"/>
</symbol><symbol viewBox="0 0 20 20" fill="none" id="icon-search" xmlns="http://www.w3.org/2000/svg">
<path d="M9.5 17C13.6421 17 17 13.6421 17 9.5C17 5.35786 13.6421 2 9.5 2C5.35786 2 2 5.35786 2 9.5C2 13.6421 5.35786 17 9.5 17Z" stroke="currentColor" stroke-width="1.5" stroke-linecap="round" stroke-linejoin="round"/>
<path d="M15.775 17.2415C16.2167 18.5748 17.225 18.7082 18 17.5415C18.7084 16.4748 18.2417 15.5998 16.9584 15.5998C16.0084 15.5915 15.475 16.3332 15.775 17.2415Z" stroke="currentColor" stroke-width="1.5" stroke-linecap="round" stroke-linejoin="round"/>
</symbol><symbol viewBox="0 0 20 20" fill="none" id="icon-star" xmlns="http://www.w3.org/2000/svg">
<path d="M9.07668 1.21993C9.41827 0.398635 10.5817 0.398636 10.9233 1.21993L12.9395 6.06735C13.0835 6.41358 13.4091 6.65015 13.7829 6.68012L19.0161 7.09966C19.9027 7.17074 20.2623 8.27725 19.5867 8.85592L15.5996 12.2713C15.3148 12.5153 15.1904 12.8981 15.2774 13.2628L16.4956 18.3695C16.702 19.2348 15.7607 19.9186 15.0016 19.455L10.5213 16.7184C10.2012 16.5229 9.79876 16.5229 9.47875 16.7184L4.9984 19.455C4.2393 19.9186 3.29805 19.2348 3.50444 18.3695L4.72257 13.2628C4.80958 12.8981 4.68521 12.5153 4.40042 12.2713L0.413277 8.85592C-0.26226 8.27725 0.0972674 7.17074 0.983922 7.09966L6.21712 6.68012C6.59091 6.65015 6.91652 6.41358 7.06052 6.06735L9.07668 1.21993Z" fill="currentColor"/>
</symbol><symbol viewBox="0 0 18 18" fill="none" id="icon-tel" xmlns="http://www.w3.org/2000/svg">
<path d="M3.75028 7.39534C5.18758 10.5258 7.74508 13.0146 10.9247 14.3639L11.4344 14.591C12.6005 15.1105 13.9714 14.7158 14.6826 13.6557L15.3487 12.6629C15.5652 12.3401 15.4993 11.9054 15.1968 11.6613L12.9379 9.83898C12.6061 9.57132 12.1182 9.63366 11.8644 9.97616L11.1656 10.9191C9.3725 10.0346 7.91671 8.57881 7.0322 6.7857L7.97514 6.08691C8.31764 5.83309 8.37998 5.34521 8.11232 5.01342L6.28991 2.75446C6.0459 2.452 5.61128 2.38603 5.2885 2.60245L4.28887 3.27273C3.22211 3.98801 2.82958 5.37014 3.36113 6.53936L3.74969 7.39407L3.75028 7.39534Z" fill="currentColor"/>
</symbol></svg>